<?xml version="1.0" encoding="utf-8"?>
<!-- Generator: Adobe Illustrator 18.1.0, SVG Export Plug-In . SVG Version: 6.00 Build 0)  -->
<svg version="1.1" id="Слой_1" xmlns="http://www.w3.org/2000/svg" xmlns:xlink="http://www.w3.org/1999/xlink" x="0px" y="0px"
	 viewBox="0 0 841.89 595.28" enable-background="new 0 0 841.89 595.28" xml:space="preserve">
<linearGradient id="SVGID_1_" gradientUnits="userSpaceOnUse" x1="155.7" y1="311.815" x2="411.2299" y2="311.815" gradientTransform="matrix(1.05 0 0 -1.05 123.305 625.0477)">
	<stop  offset="0" style="stop-color:#D0090F"/>
	<stop  offset="1" style="stop-color:#E58618"/>
</linearGradient>
<path fill="url(#SVGID_1_)" d="M422.376,14.608c11.395,0,20.596,8.035,20.596,17.969c0,2.19,6.282,20.013,5.261,25.418
	c-0.731,4.236-3.213,9.641-7.012,15.193c0.439,0.293,0.73,0.877,1.022,1.608c9.934,35.642,20.598,36.665,20.598,36.665
	c8.325,1.752,15.63,5.259,21.181,10.226c7.597,3.945,15.485,20.013,13.001,42.364c-0.439,4.236,0.583,7.888,1.899,11.248
	c-6.28,7.45-11.249,16.946-14.316,27.756c-2.921-3.068-5.551-7.888-7.889-13.878c-1.607,2.775-2.921,4.821-3.652,5.843
	c0.731,9.495,8.035,34.183,11.834,51.566c0.876-2.483,1.751-4.675,2.921-6.719c-2.191-6.574-2.775-15.047-1.461-24.25
	c2.191-14.316,9.349-29.507,17.675-36.812c3.608-2.886,2.083-20.169,5.565-20.167c0.043,0,0.087,0.003,0.132,0.008
	c0.457,0.077,2.097,0.587,3.998,0.587c1.755,0,3.733-0.435,5.205-2.048c3.856-3.996,6.175-13.016,9.959-13.015
	c0.087,0,0.179,0.005,0.268,0.015c6.28,0.438,10.225,14.462,11.247,18.844c1.022,4.967-10.371,11.394-8.764,17.091
	c0.878,3.068,2.482,6.281,0,17.091c-2.191,9.788,2.336,19.867,0.439,24.834c-2.191,6.136-5.697,13.294-9.934,19.429
	c2.337,4.529,3.652,10.372,3.652,16.945c0,3.214-3.506,5.114-5.99,7.304c-0.293-0.584-0.73-1.168-1.022-1.607
	c-0.583,7.597-2.922,22.788-8.034,32.868c-7.889,15.193-11.103,13.439-19.137,16.069c-0.227,0.065-0.49,0.096-0.779,0.096
	c-2.314,0-6.297-1.962-6.818-4.039l8.035-2.483c0,0,6.134-11.103,3.652-18.553c-0.041-0.113-0.105-0.167-0.189-0.167
	c-1.102,0-5.642,9.171-7.408,10.393c-1.899,1.168-3.213,2.19-4.383,2.483c0.731-4.821,2.484-10.81,5.261-17.384
	c3.36-7.597,8.762-12.416,13-16.653c-0.146-1.168,0.439-13.585,2.045-17.384c-0.516-0.104-1.032-0.207-1.498-0.207
	c-0.192,0-0.376,0.018-0.547,0.06c-1.315,0.293-3.506,13.294-3.36,14.755c-4.383,4.529-8.328,8.911-11.834,17.238
	c-2.921,7.013-5.842,16.362-6.573,21.621c1.455,0.427,2.809,0.905,4.298,0.905c1.054,0,2.174-0.239,3.445-0.905
	c0,0,0.02-0.007,0.026-0.007c0.216,0-0.465,1.907-0.465,1.907l-9.057,4.09c0.73,2.483,5.404,9.203,7.45,9.349
	c0.763,0.062,1.525,0.095,2.286,0.095c4.64,0,9.265-1.215,13.782-4.477c6.573,18.697,16.07,40.903,32.138,61.062
	c0.731,0.877-3.798,2.045-4.964,10.226c-0.293,2.921,3.067,10.371,2.482,14.023c-0.138,1.004-1.698,1.281-3.825,1.281
	c-2.625,0-6.114-0.422-8.85-0.422c-2.145,0-3.828,0.26-4.269,1.188c-3.797,7.451-1.098,21.394-2.324,21.394
	c-0.048,0-0.102-0.021-0.163-0.065c-5.988-3.945-10.079-6.866-12.268-11.395c0.146,20.013,0,44.993-0.439,67.928
	c-0.731,48.937,7.743,61.792,9.055,65.591h4.676v36.081h-160.1v-36.081h28.777c-3.945-14.608,12.855-65.153,0.585-108.977
	c-2.337-8.181,6.134-14.608,3.506-24.395c-3.213-13.585-7.158-23.372-7.158-40.61c0-4.821,0.439-9.934,0.876-14.317
	c-8.034-4.967,0.293-55.072-3.36-62.669c-4.82-9.787-5.697-21.913-1.607-39.588c2.628-11.833,8.764-32.429,11.103-39.295
	c5.112-15.338,3.213-20.451,5.842-33.598c-0.146,0-0.146,0-0.146-0.146c-1.167,4.529-4.673,16.946-5.549,19.136
	c-6.244,16.003-16.663,27.254-24.644,27.254c-0.981,0-1.924-0.17-2.819-0.521c-2.484-1.023-4.528-3.36-5.843-6.72
	c-4.968-6.719-10.371-18.407-14.608-32.283c-4.53-15.047-7.012-36.959-7.743-37.251c-7.304-2.921-28.339-6.427-28.923-14.608
	c-0.293-5.842,2.191-14.316,2.921-15.776c1.024-1.607,2.923-2.775,5.115-3.506c-3.213-1.608-7.45-4.675-6.136-7.743
	c1.752-4.383,6.282-7.742,12.416-7.742c6.136,0,12.71,3.36,12.71,8.473c0,2.629-3.652,4.383-5.991,5.99
	c0.439,0.146,0.731,0.146,0.878,0.146c5.697,1.022,18.698,15.776,18.698,22.35c0,2.191,12.27,24.834,17.675,43.094
	c0.146,0.438,0.293,0.877,0.439,1.315c3.798-6.135,8.474-12.416,12.855-17.968c-0.146-1.899,1.022-7.45,1.461-9.349
	c2.921-12.562,7.45-30.677,27.026-34.621c0.656-0.146,1.277-0.218,1.862-0.218c0.583,0,1.132,0.074,1.644,0.218
	c4.818-2.629,10.225-4.675,15.774-5.842l-4.089-18.991c-3.215,1.462-6.428,2.484-9.495,2.63c-0.039,0.003-0.079,0.005-0.118,0.005
	c-3.404,0-10.259-12.132-10.692-12.276c-0.399-0.15-0.82-0.206-1.243-0.206c-1.252,0-2.531,0.487-3.366,0.487
	c-0.539,0-0.894-0.202-0.942-0.866c-0.73-5.843-1.752-10.518-2.63-14.17c-1.897-8.91-4.964-11.978-4.964-17.091
	c0-10.372,7.888-20.159,18.843-24.395C403.532,21.328,412.005,14.608,422.376,14.608 M413.979,310.944
	c0.608,0,2.061-14.381,17.454-43.907c5.405-10.226,12.416-20.452,18.697-27.463c-5.695,11.249-11.103,30.239-14.462,52.005
	c-2.043,13.439-3.213,25.564-3.652,35.936c0-0.146,0-0.146-0.146-0.146c-0.437,46.453,3.069,85.457,1.024,114.527
	c-4.53,61.647-21.035,92.323-35.058,102.696h9.201c13.148-13.148,27.463-46.161,31.701-104.302
	c1.168-15.922-0.293-47.184-1.607-79.03c0-0.73,0-2.045-0.146-4.383c-0.146-3.945-0.293-7.889-0.439-11.978
	c-0.293-11.688,0.439-29.362,4.237-52.444c5.695-33.891,16.215-60.623,24.833-60.623c-1.315-2.045-2.628-3.36-4.237-3.652
	c-0.133-0.015-0.269-0.022-0.406-0.022c-1.205,0-2.502,0.565-3.684,1.483c-8.034,3.652-19.719,17.53-29.216,35.498
	c-13.146,24.395-16.798,39.295-14.17,45.724C413.928,310.917,413.953,310.944,413.979,310.944 M412.298,235.775
	c-6.138,3.068-13.733,11.541-19.868,20.452c-9.932,14.17-13,28.486-6.865,31.846c0.829,0.455,1.787,0.671,2.85,0.671
	c6.783,0,17.779-8.85,26.367-20.976l23.082-28.194c-13.295,5.405-23.667,22.204-29.362,28.486
	c-6.948,7.678-12.064,12.407-15.858,12.407c-0.754,0-1.456-0.187-2.109-0.574c-4.091-2.191-0.878-14.17,8.324-27.317
	C402.947,246.732,408.353,239.427,412.298,235.775 M466.347,544.59h8.182c-0.293-0.439-0.585-0.877-0.731-1.316
	c-17.385-41.925,0.439-131.618,5.403-159.958c3.652-22.204,1.024-25.71-0.291-26.149
	C477.011,369.586,450.569,501.935,466.347,544.59 M422.376,0.001c-14.328,0-26.75,7.834-32.205,19.491
	c-13.13,7.573-21.552,20.86-21.552,34.851c0,5.497,1.646,9.62,2.969,12.933c0.861,2.157,1.676,4.194,2.316,7.201
	c0.865,3.627,1.752,7.648,2.398,12.758c0.741,6.871,5.753,12.225,12.317,13.536c1.667,2.354,3.499,4.67,5.578,6.647
	c-21.934,6.427-29.211,25.938-32.621,39.019c-0.817-1.783-1.596-3.462-2.313-5.007c-1.284-2.768-2.345-4.995-2.937-6.429
	c-1.333-7.225-6.803-16.008-13.438-22.802c0.109-0.794,0.166-1.623,0.166-2.491c0-12.942-11.999-23.08-27.319-23.08
	c-11.67,0-21.867,6.643-25.979,16.925c-1.637,3.815-2.018,8.791,0.12,13.732c-1.63,4.982-3.368,12.98-3.046,19.448
	c1.147,16.07,18.522,21.658,30.849,25.233c1.392,8.328,3.443,20.22,6.42,30.108c4.428,14.505,10.003,26.934,15.815,35.313
	c2.865,6.104,7.447,10.675,13.062,12.988c2.809,1.106,5.555,1.621,8.381,1.621c0.439,0,0.876-0.012,1.309-0.036
	c-0.837,3.218-1.586,6.26-2.174,8.909c-4.518,19.525-3.857,34.827,2.125,47.872c0.342,3.402-0.128,12.69-0.447,18.976
	c-1.029,20.278-1.44,33.851,2.518,42.576c-0.26,3.302-0.453,6.817-0.453,10.318c0,15.23,2.745,25.567,5.399,35.563
	c0.718,2.701,1.453,5.461,2.15,8.411c0.15,1.084-0.702,3.27-1.211,4.576c-1.833,4.701-4.602,11.805-2.125,20.471
	c6.99,24.967,3.238,53.88,0.5,74.99c-0.74,5.698-1.4,10.792-1.811,15.364h-14.004c-8.067,0-14.608,6.541-14.608,14.608v36.081
	c0,8.068,6.54,14.608,14.608,14.608h160.104c8.067,0,14.608-6.54,14.608-14.608V544.59c0-6.011-3.631-11.174-8.818-13.416
	c-2.385-7.657-5.353-22.638-4.914-51.956c0.263-13.694,0.424-28.26,0.478-42.25c3.171-0.492,6.17-2.023,8.406-4.337
	c4.612-4.769,4.428-10.177,4.267-14.947c-0.021-0.65-0.056-1.617-0.069-2.707c0.212,0.003,0.421,0.005,0.624,0.005
	c15.608,0,17.982-11.59,18.3-13.913c0.771-4.784-0.552-9.61-1.721-13.868c-0.118-0.425-0.237-0.841-0.348-1.24
	c6.823-6.882,5.485-15.45,1.295-20.473c-13.895-17.439-22.399-36.99-27.795-51.607c2-2.705,4.023-6.031,6.17-10.166
	c4.791-9.447,7.288-21.224,8.531-29.29c3.315-2.828,8.159-7.963,8.159-16.008c0-5.409-0.694-10.589-2.033-15.334
	c2.949-5.145,5.521-10.684,7.465-16.126c2.117-5.529,1.267-11.397,0.521-16.574c-0.521-3.597-1.059-7.317-0.462-9.981
	c2.16-9.403,1.948-15.168,1.034-19.642c0.115-0.13,0.228-0.26,0.34-0.391c3.506-4.078,9.372-10.902,7.443-20.285
	c-3.153-13.541-9.888-29.452-24.541-30.473c-0.337-0.023-0.943-0.05-1.282-0.05c-9.957-0.002-15.026,7.67-17.899,12.846
	c-2.49-14.74-9.073-26.825-18.455-32.667c-6.752-5.668-15.197-9.82-24.617-12.106c-1.525-1.676-5.792-7.411-10.506-22.97
	c2.279-4.234,4.344-9.156,5.212-14.186c1.188-6.28-0.824-14.223-4.032-25.6c-0.432-1.525-0.817-2.844-1.052-3.787
	C456.704,13.817,441.25,0.001,422.376,0.001L422.376,0.001z"/>
</svg>
