<?xml version="1.0" encoding="utf-8"?>
<!-- Generator: Adobe Illustrator 18.1.0, SVG Export Plug-In . SVG Version: 6.00 Build 0)  -->
<svg version="1.1" id="Слой_1" xmlns="http://www.w3.org/2000/svg" xmlns:xlink="http://www.w3.org/1999/xlink" x="0px" y="0px"
	 viewBox="0 0 255.529 566.929" enable-background="new 0 0 255.529 566.929" xml:space="preserve">
<linearGradient id="SVGID_1_" gradientUnits="userSpaceOnUse" x1="6.405212e-004" y1="283.4646" x2="255.5285" y2="283.4646">
	<stop  offset="0.0722" style="stop-color:#E20413"/>
	<stop  offset="0.2456" style="stop-color:#E20913"/>
	<stop  offset="0.4442" style="stop-color:#E31713"/>
	<stop  offset="0.6552" style="stop-color:#E52E13"/>
	<stop  offset="0.8735" style="stop-color:#E84D13"/>
	<stop  offset="0.9072" style="stop-color:#E85313"/>
</linearGradient>
<path fill="url(#SVGID_1_)" d="M129.128,13.912c10.852,0,19.615,7.652,19.615,17.113c0,2.086,5.983,19.06,5.01,24.207
	c-0.696,4.034-3.06,9.182-6.678,14.469c0.418,0.279,0.695,0.835,0.973,1.531c9.461,33.945,19.617,34.919,19.617,34.919
	c7.929,1.669,14.885,5.009,20.172,9.739c7.235,3.757,14.748,19.06,12.382,40.346c-0.418,4.034,0.555,7.512,1.809,10.712
	c-5.981,7.095-10.713,16.139-13.634,26.434c-2.782-2.922-5.287-7.512-7.513-13.217c-1.53,2.643-2.782,4.591-3.478,5.565
	c0.696,9.043,7.652,32.554,11.27,49.11c0.834-2.365,1.668-4.452,2.782-6.399c-2.087-6.261-2.643-14.33-1.391-23.095
	c2.087-13.634,8.904-28.102,16.833-35.059c3.436-2.749,1.984-19.208,5.3-19.207c0.041,0,0.083,0.003,0.126,0.008
	c0.435,0.073,1.997,0.559,3.808,0.559c1.671,0,3.555-0.414,4.957-1.95c3.672-3.806,5.881-12.396,9.485-12.395
	c0.083,0,0.17,0.005,0.255,0.014c5.981,0.417,9.738,13.773,10.711,17.947c0.973,4.73-9.877,10.851-8.347,16.277
	c0.836,2.922,2.364,5.982,0,16.277c-2.087,9.322,2.225,18.921,0.418,23.651c-2.087,5.844-5.426,12.661-9.461,18.504
	c2.226,4.313,3.478,9.878,3.478,16.138c0,3.061-3.339,4.87-5.705,6.956c-0.279-0.556-0.695-1.112-0.973-1.53
	c-0.555,7.235-2.783,21.703-7.651,31.303c-7.513,14.469-10.574,12.799-18.226,15.304c-0.216,0.062-0.467,0.091-0.742,0.091
	c-2.204,0-5.997-1.869-6.493-3.847l7.652-2.365c0,0,5.842-10.574,3.478-17.669c-0.039-0.108-0.1-0.159-0.18-0.159
	c-1.05,0-5.373,8.734-7.055,9.898c-1.809,1.112-3.06,2.086-4.174,2.365c0.696-4.591,2.366-10.295,5.01-16.556
	c3.2-7.235,8.345-11.825,12.381-15.86c-0.139-1.112,0.418-12.938,1.948-16.556c-0.491-0.098-0.983-0.197-1.427-0.197
	c-0.183,0-0.358,0.017-0.521,0.057c-1.252,0.279-3.339,12.661-3.2,14.052c-4.174,4.313-7.931,8.487-11.27,16.416
	c-2.782,6.679-5.564,15.583-6.26,20.591c1.386,0.407,2.675,0.862,4.093,0.862c1.004,0,2.07-0.228,3.281-0.862
	c0,0,0.019-0.007,0.025-0.007c0.205,0-0.443,1.816-0.443,1.816l-8.626,3.895c0.695,2.365,5.148,8.765,7.095,8.904
	c0.727,0.059,1.452,0.09,2.177,0.09c4.419,0,8.824-1.157,13.126-4.264c6.26,17.807,15.305,38.954,30.607,58.154
	c0.696,0.835-3.617,1.948-4.728,9.739c-0.279,2.782,2.921,9.877,2.364,13.355c-0.131,0.956-1.617,1.22-3.643,1.22
	c-2.5,0-5.823-0.402-8.429-0.402c-2.043,0-3.646,0.248-4.066,1.131c-3.616,7.096-1.046,20.375-2.213,20.375
	c-0.046,0-0.097-0.02-0.155-0.062c-5.703-3.757-9.599-6.539-11.684-10.852c0.139,19.06,0,42.85-0.418,64.693
	c-0.696,46.606,7.374,58.849,8.624,62.466h4.453v34.363H63.184v-34.363H90.59c-3.757-13.912,12.243-62.049,0.557-103.787
	c-2.226-7.791,5.842-13.912,3.339-23.233c-3.06-12.938-6.817-22.259-6.817-38.676c0-4.591,0.418-9.461,0.834-13.635
	c-7.651-4.73,0.279-52.449-3.2-59.684c-4.59-9.321-5.426-20.869-1.53-37.703c2.503-11.269,8.347-30.885,10.574-37.424
	c4.869-14.608,3.06-19.477,5.564-31.998c-0.139,0-0.139,0-0.139-0.139c-1.111,4.313-4.45,16.139-5.285,18.225
	c-5.947,15.241-15.869,25.956-23.47,25.956c-0.934,0-1.832-0.162-2.685-0.496c-2.366-0.974-4.312-3.2-5.565-6.4
	c-4.731-6.399-9.877-17.53-13.912-30.746c-4.314-14.33-6.678-35.199-7.374-35.477c-6.956-2.782-26.989-6.121-27.546-13.912
	c-0.279-5.564,2.087-13.634,2.782-15.025c0.975-1.53,2.783-2.643,4.871-3.339c-3.06-1.531-7.095-4.452-5.844-7.374
	c1.669-4.174,5.983-7.373,11.825-7.373c5.844,0,12.105,3.2,12.105,8.069c0,2.504-3.478,4.174-5.706,5.705
	c0.418,0.139,0.696,0.139,0.836,0.139c5.426,0.973,17.808,15.025,17.808,21.285c0,2.087,11.686,23.651,16.833,41.042
	c0.139,0.417,0.279,0.835,0.418,1.252c3.617-5.843,8.07-11.825,12.243-17.112c-0.139-1.809,0.973-7.095,1.391-8.904
	c2.782-11.964,7.095-29.216,25.739-32.972c0.625-0.139,1.216-0.208,1.773-0.208c0.555,0,1.078,0.07,1.566,0.208
	c4.589-2.504,9.738-4.452,15.023-5.564l-3.894-18.087c-3.062,1.392-6.122,2.366-9.043,2.505c-0.037,0.003-0.075,0.005-0.112,0.005
	c-3.242,0-9.77-11.554-10.183-11.691c-0.38-0.143-0.781-0.196-1.184-0.196c-1.192,0-2.41,0.464-3.206,0.464
	c-0.513,0-0.851-0.192-0.897-0.825c-0.695-5.565-1.669-10.017-2.505-13.495c-1.807-8.486-4.728-11.408-4.728-16.277
	c0-9.878,7.512-19.199,17.946-23.233C111.181,20.312,119.251,13.912,129.128,13.912 M121.131,296.135
	c0.579,0,1.963-13.696,16.623-41.816c5.148-9.739,11.825-19.478,17.807-26.155c-5.424,10.713-10.574,28.799-13.773,49.528
	c-1.946,12.799-3.06,24.347-3.478,34.225c0-0.139,0-0.139-0.139-0.139c-0.416,44.241,2.923,81.387,0.975,109.073
	c-4.314,58.711-20.033,87.926-33.388,97.804h8.763c12.521-12.521,26.155-43.963,30.19-99.335c1.112-15.164-0.279-44.937-1.53-75.266
	c0-0.695,0-1.948-0.139-4.174c-0.139-3.757-0.279-7.513-0.418-11.408c-0.279-11.131,0.418-27.964,4.035-49.946
	c5.424-32.277,15.443-57.736,23.65-57.736c-1.252-1.948-2.503-3.2-4.035-3.478c-0.127-0.014-0.256-0.021-0.387-0.021
	c-1.148,0-2.383,0.538-3.509,1.412c-7.651,3.478-18.78,16.695-27.825,33.807c-12.52,23.233-15.998,37.424-13.495,43.546
	C121.082,296.108,121.105,296.135,121.131,296.135 M119.529,224.546c-5.846,2.922-13.079,10.991-18.922,19.478
	c-9.459,13.495-12.381,27.129-6.538,30.329c0.79,0.433,1.702,0.639,2.714,0.639c6.46,0,16.932-8.429,25.111-19.977l21.983-26.851
	c-12.662,5.148-22.54,21.147-27.964,27.129c-6.617,7.312-11.489,11.816-15.103,11.816c-0.718,0-1.387-0.178-2.009-0.547
	c-3.896-2.087-0.836-13.495,7.928-26.016C110.623,234.98,115.773,228.024,119.529,224.546 M171.004,518.654h7.792
	c-0.279-0.418-0.557-0.835-0.696-1.253c-16.557-39.928,0.418-125.35,5.146-152.34c3.478-21.147,0.975-24.486-0.277-24.904
	C181.16,351.984,155.978,478.03,171.004,518.654 M129.128,0c-13.646,0-25.476,7.461-30.671,18.563
	C85.952,25.775,77.931,38.43,77.931,51.754c0,5.235,1.568,9.162,2.828,12.317c0.82,2.054,1.596,3.994,2.206,6.858
	c0.824,3.454,1.669,7.284,2.284,12.15c0.706,6.544,5.479,11.643,11.73,12.891c1.588,2.242,3.332,4.448,5.312,6.33
	c-20.889,6.121-27.82,24.703-31.067,37.161c-0.778-1.698-1.52-3.297-2.203-4.769c-1.223-2.636-2.233-4.757-2.797-6.123
	c-1.27-6.881-6.479-15.246-12.798-21.716c0.104-0.756,0.158-1.546,0.158-2.372c0-12.326-11.428-21.981-26.018-21.981
	c-11.114,0-20.826,6.327-24.742,16.119c-1.559,3.633-1.922,8.372,0.114,13.078c-1.552,4.745-3.208,12.362-2.901,18.522
	c1.092,15.305,17.64,20.627,29.38,24.031c1.326,7.931,3.279,19.257,6.114,28.673c4.217,13.814,9.527,25.651,15.062,33.631
	c2.729,5.813,7.092,10.167,12.44,12.369c2.675,1.053,5.29,1.544,7.982,1.544c0.418,0,0.834-0.011,1.247-0.034
	c-0.796,3.065-1.51,5.962-2.07,8.485c-4.303,18.595-3.673,33.168,2.024,45.592c0.326,3.24-0.122,12.086-0.426,18.071
	c-0.98,19.312-1.371,32.239,2.398,40.548c-0.248,3.145-0.431,6.492-0.431,9.827c0,14.505,2.614,24.349,5.142,33.869
	c0.684,2.572,1.384,5.201,2.048,8.01c0.143,1.032-0.669,3.114-1.153,4.358c-1.746,4.477-4.383,11.243-2.024,19.496
	c6.657,23.778,3.084,51.314,0.476,71.419c-0.705,5.427-1.333,10.278-1.725,14.632H63.184c-7.683,0-13.912,6.229-13.912,13.912
	v34.363c0,7.683,6.229,13.912,13.912,13.912h152.479c7.683,0,13.912-6.229,13.912-13.912v-34.363c0-5.724-3.458-10.641-8.398-12.777
	c-2.271-7.292-5.098-21.56-4.68-49.482c0.25-13.042,0.404-26.914,0.455-40.238c3.02-0.469,5.876-1.927,8.006-4.13
	c4.392-4.542,4.217-9.692,4.064-14.235c-0.02-0.619-0.053-1.54-0.066-2.578c0.202,0.003,0.401,0.005,0.594,0.005
	c14.865,0,17.126-11.038,17.428-13.25c0.734-4.556-0.526-9.152-1.639-13.208c-0.112-0.405-0.226-0.801-0.331-1.181
	c6.498-6.554,5.224-14.714,1.233-19.498c-13.233-16.608-21.332-35.228-26.471-49.148c1.905-2.576,3.831-5.744,5.876-9.682
	c4.563-8.997,6.941-20.213,8.125-27.895c3.157-2.693,7.77-7.584,7.77-15.246c0-5.151-0.661-10.085-1.936-14.604
	c2.809-4.9,5.258-10.175,7.109-15.358c2.016-5.266,1.207-10.854,0.496-15.785c-0.496-3.426-1.009-6.969-0.44-9.506
	c2.057-8.955,1.855-14.446,0.985-18.707c0.109-0.124,0.217-0.248,0.324-0.372c3.339-3.884,8.926-10.383,7.089-19.319
	c-3.003-12.896-9.417-28.049-23.372-29.022c-0.321-0.022-0.898-0.048-1.221-0.048c-9.483-0.002-14.31,7.305-17.047,12.234
	c-2.371-14.038-8.641-25.547-17.576-31.111c-6.43-5.398-14.473-9.352-23.445-11.529c-1.452-1.596-5.516-7.058-10.006-21.876
	c2.17-4.032,4.137-8.72,4.964-13.51c1.131-5.981-0.785-13.546-3.84-24.381c-0.411-1.452-0.778-2.709-1.002-3.607
	C161.82,13.158,147.103,0,129.128,0L129.128,0z"/>
</svg>
