<?xml version="1.0" encoding="utf-8"?>
<!-- Generator: Adobe Illustrator 18.1.0, SVG Export Plug-In . SVG Version: 6.00 Build 0)  -->
<svg version="1.1" id="Слой_1" xmlns="http://www.w3.org/2000/svg" xmlns:xlink="http://www.w3.org/1999/xlink" x="0px" y="0px"
	 viewBox="0 0 566.93 566.93" enable-background="new 0 0 566.93 566.93" xml:space="preserve">
<linearGradient id="SVGID_1_" gradientUnits="userSpaceOnUse" x1="1.336601e-006" y1="283.465" x2="566.3358" y2="283.465">
	<stop  offset="0.0722" style="stop-color:#4D4D4D"/>
	<stop  offset="0.3514" style="stop-color:#515151"/>
	<stop  offset="0.6705" style="stop-color:#5F5F5F"/>
	<stop  offset="0.9072" style="stop-color:#6E6E6E"/>
</linearGradient>
<path fill="url(#SVGID_1_)" d="M336.607,283.456L555.271,64.793c14.749-14.749,14.758-38.673,0-53.431
	c-14.758-14.758-38.682-14.749-53.431,0L283.177,230.025L64.513,11.362c-14.758-14.758-38.682-14.749-53.431,0
	s-14.758,38.673,0,53.431l218.663,218.663L11.065,502.137c-14.749,14.749-14.758,38.673,0,53.431
	c14.758,14.758,38.682,14.749,53.431,0l218.68-218.681L501.84,555.55c14.758,14.758,38.682,14.749,53.431,0
	c14.749-14.749,14.758-38.673,0-53.431L336.607,283.456z"/>
</svg>
