<?xml version="1.0" encoding="utf-8"?>
<!-- Generator: Adobe Illustrator 18.1.0, SVG Export Plug-In . SVG Version: 6.00 Build 0)  -->
<svg version="1.1" id="Слой_1" xmlns="http://www.w3.org/2000/svg" xmlns:xlink="http://www.w3.org/1999/xlink" x="0px" y="0px"
	 viewBox="0 0 841.89 595.28" enable-background="new 0 0 841.89 595.28" xml:space="preserve">
<g>
	
		<linearGradient id="SVGID_1_" gradientUnits="userSpaceOnUse" x1="494.353" y1="315.2927" x2="567.7479" y2="315.2927" gradientTransform="matrix(1.05 0 0 -1.05 123.305 625.0477)">
		<stop  offset="0" style="stop-color:#D0090F"/>
		<stop  offset="1" style="stop-color:#E58618"/>
	</linearGradient>
	<path fill="url(#SVGID_1_)" d="M719.419,452.825l-16.355-230.864l-5.662-105.052c0-5.033-4.404-8.806-9.435-8.806
		c-13.839,0-26.42,10.064-28.307,24.533l-16.985,112.601c-2.517,18.243,11.323,34.598,29.566,34.598h6.291l-11.952,172.99
		c-1.258,14.468,10.694,27.049,25.162,27.049h2.517C708.724,479.875,720.048,467.293,719.419,452.825z"/>
	
		<linearGradient id="SVGID_2_" gradientUnits="userSpaceOnUse" x1="-0.8179" y1="315.7095" x2="71.0751" y2="315.7095" gradientTransform="matrix(1.05 0 0 -1.05 123.305 625.0477)">
		<stop  offset="0" style="stop-color:#D0090F"/>
		<stop  offset="1" style="stop-color:#E58618"/>
	</linearGradient>
	<path fill="url(#SVGID_2_)" d="M197.304,199.945l-1.887-85.551c0-3.774-2.517-6.92-5.662-7.549
		c-5.033-1.258-8.806,2.517-8.806,6.92c0,0-1.258,62.906-1.887,81.149c0,2.517-2.517,5.033-5.033,5.033l0,0
		c-2.517,0-5.033-1.887-5.033-5.033c-0.629-18.243-1.887-81.149-1.887-81.149c0-4.404-4.404-8.177-8.806-6.92
		c-3.145,0.629-5.662,3.774-5.662,7.549l-1.887,80.519c0,2.517-2.517,5.033-5.033,5.033l0,0c-2.517,0-5.033-1.887-5.033-5.033
		c-0.629-18.243-1.887-81.149-1.887-81.149c0-4.404-4.404-8.177-8.806-6.92c-3.145,0.629-5.662,3.774-5.662,7.549l-1.889,85.552l0,0
		l0,0v11.323c0,11.323,3.774,22.017,10.694,28.936l14.468,14.468l-13.839,198.781c-1.258,14.469,10.694,27.049,25.162,27.049h2.517
		c14.468,0,26.42-12.581,25.162-27.049l-13.839-199.41l14.468-13.839c6.92-6.92,10.694-17.614,10.694-28.936L197.304,199.945
		L197.304,199.945L197.304,199.945z"/>
	
		<linearGradient id="SVGID_3_" gradientUnits="userSpaceOnUse" x1="104.0251" y1="308.4027" x2="461.0851" y2="308.4027" gradientTransform="matrix(1.05 0 0 -1.05 123.305 625.0477)">
		<stop  offset="0" style="stop-color:#D0090F"/>
		<stop  offset="1" style="stop-color:#E58618"/>
	</linearGradient>
	<path fill="url(#SVGID_3_)" d="M419.99,113.765c-103.165,0-187.458,84.293-187.458,187.458
		c0,103.165,84.293,187.459,187.458,187.459c103.165,0,187.458-84.293,187.458-187.458
		C606.818,197.429,523.154,113.765,419.99,113.765z M419.99,453.454c-84.293,0-152.231-68.568-152.231-152.231
		s68.568-152.231,152.231-152.231s152.231,68.568,152.231,152.231S503.653,453.454,419.99,453.454z"/>
	
		<linearGradient id="SVGID_4_" gradientUnits="userSpaceOnUse" x1="160.9391" y1="309.0022" x2="404.1711" y2="309.0022" gradientTransform="matrix(1.05 0 0 -1.05 123.305 625.0477)">
		<stop  offset="0" style="stop-color:#D0090F"/>
		<stop  offset="1" style="stop-color:#E58618"/>
	</linearGradient>
	<path fill="url(#SVGID_4_)" d="M419.99,172.896c-70.454,0-127.698,57.244-127.698,127.698s57.244,127.698,127.698,127.698
		s127.698-57.244,127.698-127.698S490.443,172.896,419.99,172.896z M419.99,406.904c-58.502,0-106.31-47.808-106.31-106.31
		s47.807-106.311,106.31-106.311S526.3,242.091,526.3,300.595S478.491,406.904,419.99,406.904z"/>
</g>
</svg>
