<?xml version="1.0" encoding="utf-8"?>
<!-- Generator: Adobe Illustrator 18.1.0, SVG Export Plug-In . SVG Version: 6.00 Build 0)  -->
<svg version="1.1" id="Слой_1" xmlns="http://www.w3.org/2000/svg" xmlns:xlink="http://www.w3.org/1999/xlink" x="0px" y="0px"
	 viewBox="0 0 566.93 350.799" enable-background="new 0 0 566.93 350.799" xml:space="preserve">
<g>
	<linearGradient id="SVGID_1_" gradientUnits="userSpaceOnUse" x1="441.2687" y1="295.9279" x2="492.838" y2="295.9279">
		<stop  offset="0.0722" style="stop-color:#E20413"/>
		<stop  offset="0.2456" style="stop-color:#E20913"/>
		<stop  offset="0.4442" style="stop-color:#E31713"/>
		<stop  offset="0.6552" style="stop-color:#E52E13"/>
		<stop  offset="0.8735" style="stop-color:#E84D13"/>
		<stop  offset="0.9072" style="stop-color:#E85313"/>
	</linearGradient>
	<path fill="url(#SVGID_1_)" d="M467.052,321.712c1.103,0,2.223-0.069,3.353-0.212c11.492-1.448,20.772-10.728,22.221-22.221
		c1.983-15.736-10.231-29.137-25.574-29.136c-1.101,0-2.222,0.069-3.351,0.212c-11.492,1.448-20.772,10.728-22.22,22.22
		C439.496,308.312,451.709,321.712,467.052,321.712z M452.024,293.904c0.843-6.693,6.313-12.162,13.006-13.006
		c0.675-0.086,1.355-0.128,2.023-0.128c4.348,0,8.494,1.873,11.374,5.138c2.92,3.309,4.216,7.586,3.654,12.042
		c-0.843,6.693-6.313,12.163-13.005,13.007c-0.676,0.085-1.357,0.128-2.025,0.128c-4.349,0-8.495-1.873-11.375-5.139
		C452.76,302.638,451.462,298.361,452.024,293.904z"/>
	<linearGradient id="SVGID_2_" gradientUnits="userSpaceOnUse" x1="440.2397" y1="110.1985" x2="449.7385" y2="110.1985">
		<stop  offset="0.0722" style="stop-color:#E20413"/>
		<stop  offset="0.2456" style="stop-color:#E20913"/>
		<stop  offset="0.4442" style="stop-color:#E31713"/>
		<stop  offset="0.6552" style="stop-color:#E52E13"/>
		<stop  offset="0.8735" style="stop-color:#E84D13"/>
		<stop  offset="0.9072" style="stop-color:#E85313"/>
	</linearGradient>
	<circle fill="url(#SVGID_2_)" cx="444.989" cy="110.199" r="4.749"/>
	<linearGradient id="SVGID_3_" gradientUnits="userSpaceOnUse" x1="478.5092" y1="110.1985" x2="488.0094" y2="110.1985">
		<stop  offset="0.0722" style="stop-color:#E20413"/>
		<stop  offset="0.2456" style="stop-color:#E20913"/>
		<stop  offset="0.4442" style="stop-color:#E31713"/>
		<stop  offset="0.6552" style="stop-color:#E52E13"/>
		<stop  offset="0.8735" style="stop-color:#E84D13"/>
		<stop  offset="0.9072" style="stop-color:#E85313"/>
	</linearGradient>
	<circle fill="url(#SVGID_3_)" cx="483.259" cy="110.199" r="4.75"/>
	<linearGradient id="SVGID_4_" gradientUnits="userSpaceOnUse" x1="449.0213" y1="143.3182" x2="480.1208" y2="143.3182">
		<stop  offset="0.0722" style="stop-color:#E20413"/>
		<stop  offset="0.2456" style="stop-color:#E20913"/>
		<stop  offset="0.4442" style="stop-color:#E31713"/>
		<stop  offset="0.6552" style="stop-color:#E52E13"/>
		<stop  offset="0.8735" style="stop-color:#E84D13"/>
		<stop  offset="0.9072" style="stop-color:#E85313"/>
	</linearGradient>
	<path fill="url(#SVGID_4_)" d="M450.511,144.217c4.405,2.159,9.196,3.245,13.992,3.245c4.169,0,8.339-0.819,12.269-2.462
		l1.715-0.716c1.353-0.566,1.993-2.121,1.427-3.475c-0.566-1.355-2.125-1.991-3.476-1.429l-1.715,0.718
		c-7.045,2.946-15.024,2.706-21.878-0.651c-1.319-0.646-2.907-0.098-3.554,1.217C448.648,141.981,449.193,143.572,450.511,144.217z"
		/>
	<linearGradient id="SVGID_5_" gradientUnits="userSpaceOnUse" x1="427.8282" y1="93.1758" x2="447.7236" y2="93.1758">
		<stop  offset="0.0722" style="stop-color:#E20413"/>
		<stop  offset="0.2456" style="stop-color:#E20913"/>
		<stop  offset="0.4442" style="stop-color:#E31713"/>
		<stop  offset="0.6552" style="stop-color:#E52E13"/>
		<stop  offset="0.8735" style="stop-color:#E84D13"/>
		<stop  offset="0.9072" style="stop-color:#E85313"/>
	</linearGradient>
	<path fill="url(#SVGID_5_)" d="M430.484,98.616c0.655,0,1.31-0.24,1.822-0.724l0.817-0.771c3.135-2.956,7.39-4.414,11.689-4.007
		c1.507,0.136,2.759-0.932,2.898-2.392c0.141-1.46-0.929-2.758-2.39-2.898c-5.831-0.549-11.594,1.425-15.84,5.431l-0.818,0.771
		c-1.069,1.006-1.118,2.688-0.111,3.755C429.075,98.337,429.778,98.616,430.484,98.616z"/>
	<linearGradient id="SVGID_6_" gradientUnits="userSpaceOnUse" x1="479.5944" y1="93.1915" x2="499.1007" y2="93.1915">
		<stop  offset="0.0722" style="stop-color:#E20413"/>
		<stop  offset="0.2456" style="stop-color:#E20913"/>
		<stop  offset="0.4442" style="stop-color:#E31713"/>
		<stop  offset="0.6552" style="stop-color:#E52E13"/>
		<stop  offset="0.8735" style="stop-color:#E84D13"/>
		<stop  offset="0.9072" style="stop-color:#E85313"/>
	</linearGradient>
	<path fill="url(#SVGID_6_)" d="M482.172,92.633l1.123,0.034c4.31,0.127,8.354,2.107,11.1,5.432
		c0.526,0.636,1.287,0.965,2.051,0.965c0.595,0,1.194-0.2,1.689-0.608c1.133-0.934,1.293-2.607,0.358-3.74
		c-3.721-4.506-9.201-7.189-15.039-7.36l-1.12-0.033c-1.404-0.071-2.694,1.107-2.738,2.575
		C479.552,91.364,480.706,92.588,482.172,92.633z"/>
	<linearGradient id="SVGID_7_" gradientUnits="userSpaceOnUse" x1="354.5862" y1="187.7724" x2="567.5659" y2="187.7724">
		<stop  offset="0.0722" style="stop-color:#E20413"/>
		<stop  offset="0.2456" style="stop-color:#E20913"/>
		<stop  offset="0.4442" style="stop-color:#E31713"/>
		<stop  offset="0.6552" style="stop-color:#E52E13"/>
		<stop  offset="0.8735" style="stop-color:#E84D13"/>
		<stop  offset="0.9072" style="stop-color:#E85313"/>
	</linearGradient>
	<path fill="url(#SVGID_7_)" d="M508.092,197.433c-3.79-0.158-7.706-0.32-11.722-0.619v-23.096
		c6.758-7.42,10.458-17.07,10.458-27.384c0.067-0.955,1.116-4.123,1.746-5.458c1.587-1.897,2.175-4.895,2.872-9.906
		c1.476-10.663,3.825-20.715,6.981-29.881c2.114-5.969,3.195-12.321,3.195-18.831c0-5.941-0.963-11.781-2.944-17.855
		c-0.306-0.936-0.853-1.775-1.589-2.429c-1.76-1.568-4.057-3.127-6.576-4.62c0.407-0.324,0.774-0.709,1.084-1.149
		c1.324-1.879,1.357-4.377,0.081-6.289c-8.949-13.425-23.338-22.574-39.477-25.104c-0.285-0.045-0.573-0.067-0.861-0.067
		c-0.413,0-0.824,0.046-1.229,0.137c-3.407,0.771-8.127,2.473-12.313,3.985c-0.285-0.695-0.71-1.335-1.264-1.875
		c-1.05-1.024-2.448-1.58-3.884-1.58c-0.391,0-0.785,0.041-1.175,0.125c-26.65,5.756-45.992,29.564-45.992,56.609
		c0,6.58,1.081,12.968,3.212,18.987c3.322,9.641,5.668,19.674,6.958,29.774c0.789,5.695,1.418,8.417,2.939,10.138
		c0.572,1.194,1.528,4.263,1.577,5.324c0,10.144,3.717,19.802,10.508,27.373l-0.737,23.407c-5.808,1.235-21.064,1.346-27.244,1.391
		c-4.833,0.035-7.421,0.061-8.851,0.223c-39.621,4.363-39.431,36.11-39.23,69.72l0.033,8.226v21.247
		c0,7.361,5.989,13.349,13.35,13.349h24.807v17.131c0,12.329,10.031,22.36,22.36,22.36h103.789c12.329,0,22.36-10.03,22.36-22.36
		v-17.131h12.905c7.36,0,13.349-5.989,13.349-13.349v-21.247C567.566,205.086,545.097,198.978,508.092,197.433z M423.727,95.113
		c-1.347-4.145-2.046-8.489-2.046-12.884c0.05-16.079,9.488-30.561,23.57-37.503c1.848,1.548,4.295,2.497,6.892,2.497
		c2.647,0,4.993-0.849,10.637-2.896c2.747-1.048,6.393-2.347,8.939-3.096c2.447,0.5,4.844,1.198,7.09,2.097l-0.998,7.541
		c-1.099,8.04,5.045,10.887,11.036,13.683c3.795,1.748,11.036,5.094,15.331,7.89c0.798,3.246,1.198,6.542,1.198,9.787
		c0,4.644-0.748,9.189-2.246,13.583c-3.596,10.388-6.192,21.474-7.74,33.009c-0.3,1.947-0.5,3.047-0.6,3.645
		c-2.746,4.544-4.093,11.236-4.093,13.883c0,6.542-2.547,12.734-7.143,17.428l-1.249,1.249l-4.143,1.798
		c-9.29,4.045-19.925,4.045-29.213,0l-4.196-1.798l-1.198-1.249c-4.595-4.694-7.141-10.886-7.141-17.428
		c0-2.647-1.397-9.339-4.094-13.883c-0.149-0.649-0.399-1.898-0.649-4.144C430.32,118.135,427.823,107.548,423.727,95.113z
		 M485.651,210.02l-1.567,4.275c-1.185,9.798-9.434,8.928-19.302,9.056c-0.172,0.002-0.346,0.004-0.52,0.007
		c-9.918,0.131-18.392,1.171-19.788-8.65l-2.069-5.887c2.298-1.998,3.546-4.744,3.596-8.44l0.85-28.065l0.049-0.6
		c5.293,2.298,10.986,3.446,16.629,3.446c5.693,0,11.385-1.148,16.678-3.446v27.266C480.207,203.477,482.303,207.472,485.651,210.02
		z M524.85,330.069c-0.349,1.198-1.048,2.247-1.947,3.047h-111.66c-1.05-0.849-1.748-1.997-2.046-3.346v-68.964
		c0-0.499,0.399-0.898,0.898-0.898h28.714c2.197,0,4.245-1.249,5.244-3.246l5.193-10.437c0.1-0.15,0.3-0.299,0.5-0.299h34.557
		c0.2,0,0.399,0.149,0.5,0.299l5.193,10.437c0.999,1.997,2.997,3.246,5.193,3.246h28.764c0.5,0,0.899,0.399,0.899,0.898V330.069z"/>
</g>
<linearGradient id="SVGID_8_" gradientUnits="userSpaceOnUse" x1="220.9413" y1="110.1982" x2="230.4415" y2="110.1982">
	<stop  offset="0.0722" style="stop-color:#E20413"/>
	<stop  offset="0.2456" style="stop-color:#E20913"/>
	<stop  offset="0.4442" style="stop-color:#E31713"/>
	<stop  offset="0.6552" style="stop-color:#E52E13"/>
	<stop  offset="0.8735" style="stop-color:#E84D13"/>
	<stop  offset="0.9072" style="stop-color:#E85313"/>
</linearGradient>
<circle fill="url(#SVGID_8_)" cx="225.691" cy="110.199" r="4.75"/>
<linearGradient id="SVGID_9_" gradientUnits="userSpaceOnUse" x1="259.2108" y1="110.1982" x2="268.711" y2="110.1982">
	<stop  offset="0.0722" style="stop-color:#E20413"/>
	<stop  offset="0.2456" style="stop-color:#E20913"/>
	<stop  offset="0.4442" style="stop-color:#E31713"/>
	<stop  offset="0.6552" style="stop-color:#E52E13"/>
	<stop  offset="0.8735" style="stop-color:#E84D13"/>
	<stop  offset="0.9072" style="stop-color:#E85313"/>
</linearGradient>
<circle fill="url(#SVGID_9_)" cx="263.961" cy="110.198" r="4.75"/>
<linearGradient id="SVGID_10_" gradientUnits="userSpaceOnUse" x1="229.7232" y1="135.0312" x2="260.823" y2="135.0312">
	<stop  offset="0.0722" style="stop-color:#E20413"/>
	<stop  offset="0.2456" style="stop-color:#E20913"/>
	<stop  offset="0.4442" style="stop-color:#E31713"/>
	<stop  offset="0.6552" style="stop-color:#E52E13"/>
	<stop  offset="0.8735" style="stop-color:#E84D13"/>
	<stop  offset="0.9072" style="stop-color:#E85313"/>
</linearGradient>
<path fill="url(#SVGID_10_)" d="M231.213,135.93c4.405,2.159,9.196,3.245,13.992,3.245c4.169,0,8.34-0.819,12.27-2.462l1.714-0.716
	c1.353-0.566,1.993-2.121,1.429-3.475c-0.568-1.355-2.127-1.991-3.476-1.429l-1.716,0.718c-7.045,2.946-15.024,2.706-21.876-0.651
	c-1.32-0.646-2.909-0.098-3.555,1.217C229.35,133.694,229.896,135.285,231.213,135.93z"/>
<linearGradient id="SVGID_11_" gradientUnits="userSpaceOnUse" x1="208.5302" y1="93.1754" x2="228.4252" y2="93.1754">
	<stop  offset="0.0722" style="stop-color:#E20413"/>
	<stop  offset="0.2456" style="stop-color:#E20913"/>
	<stop  offset="0.4442" style="stop-color:#E31713"/>
	<stop  offset="0.6552" style="stop-color:#E52E13"/>
	<stop  offset="0.8735" style="stop-color:#E84D13"/>
	<stop  offset="0.9072" style="stop-color:#E85313"/>
</linearGradient>
<path fill="url(#SVGID_11_)" d="M213.826,97.122c3.137-2.956,7.39-4.414,11.689-4.007c1.507,0.136,2.759-0.932,2.898-2.392
	c0.141-1.46-0.929-2.758-2.39-2.898c-5.831-0.549-11.594,1.425-15.839,5.431l-0.817,0.771c-1.07,1.006-1.119,2.688-0.111,3.755
	c0.521,0.554,1.225,0.834,1.931,0.834c0.655,0,1.312-0.24,1.822-0.724L213.826,97.122z"/>
<linearGradient id="SVGID_12_" gradientUnits="userSpaceOnUse" x1="260.296" y1="93.1911" x2="279.8023" y2="93.1911">
	<stop  offset="0.0722" style="stop-color:#E20413"/>
	<stop  offset="0.2456" style="stop-color:#E20913"/>
	<stop  offset="0.4442" style="stop-color:#E31713"/>
	<stop  offset="0.6552" style="stop-color:#E52E13"/>
	<stop  offset="0.8735" style="stop-color:#E84D13"/>
	<stop  offset="0.9072" style="stop-color:#E85313"/>
</linearGradient>
<path fill="url(#SVGID_12_)" d="M262.875,92.632l1.122,0.034c4.31,0.127,8.354,2.107,11.1,5.432
	c0.527,0.636,1.287,0.965,2.051,0.965c0.595,0,1.195-0.2,1.689-0.608c1.133-0.934,1.293-2.607,0.359-3.74
	c-3.721-4.506-9.201-7.189-15.038-7.36l-1.122-0.033c-1.404-0.071-2.694,1.107-2.738,2.575
	C260.254,91.364,261.408,92.588,262.875,92.632z"/>
<linearGradient id="SVGID_13_" gradientUnits="userSpaceOnUse" x1="-1.482444e-005" y1="71.0254" x2="136.8668" y2="71.0254">
	<stop  offset="0.0722" style="stop-color:#E20413"/>
	<stop  offset="0.2456" style="stop-color:#E20913"/>
	<stop  offset="0.4442" style="stop-color:#E31713"/>
	<stop  offset="0.6552" style="stop-color:#E52E13"/>
	<stop  offset="0.8735" style="stop-color:#E84D13"/>
	<stop  offset="0.9072" style="stop-color:#E85313"/>
</linearGradient>
<path fill="url(#SVGID_13_)" d="M126.656,142.051V87.116c-6.083-9.759-21.602-27.188-48.712-11.026C4.49,119.875,0,17.627,0,17.627
	s38.51,21.345,66.347-3.708c23.562-21.204,52.097-9.178,60.312-4.98V0l10.208,0v142.051H126.656z"/>
<linearGradient id="SVGID_14_" gradientUnits="userSpaceOnUse" x1="108.1514" y1="252.215" x2="162.4584" y2="252.215">
	<stop  offset="0.0722" style="stop-color:#E20413"/>
	<stop  offset="0.2456" style="stop-color:#E20913"/>
	<stop  offset="0.4442" style="stop-color:#E31713"/>
	<stop  offset="0.6552" style="stop-color:#E52E13"/>
	<stop  offset="0.8735" style="stop-color:#E84D13"/>
	<stop  offset="0.9072" style="stop-color:#E85313"/>
</linearGradient>
<path fill="url(#SVGID_14_)" d="M160.017,311.135h-49.425c-1.348,0-2.441-1.093-2.441-2.441V195.625c0-1.287,1.043-2.33,2.33-2.33
	h49.647c1.287,0,2.33,1.043,2.33,2.33v113.069C162.458,310.042,161.366,311.135,160.017,311.135z"/>
<linearGradient id="SVGID_15_" gradientUnits="userSpaceOnUse" x1="166.6127" y1="168.0666" x2="347.8574" y2="168.0666">
	<stop  offset="0.0722" style="stop-color:#E20413"/>
	<stop  offset="0.2456" style="stop-color:#E20913"/>
	<stop  offset="0.4442" style="stop-color:#E31713"/>
	<stop  offset="0.6552" style="stop-color:#E52E13"/>
	<stop  offset="0.8735" style="stop-color:#E84D13"/>
	<stop  offset="0.9072" style="stop-color:#E85313"/>
</linearGradient>
<path fill="url(#SVGID_15_)" d="M288.344,197.44c-3.783-0.111-7.678-0.333-11.681-0.667v-23.027
	c6.784-7.453,10.456-17.131,10.456-27.365c0.111-1.001,1.114-4.117,1.779-5.451c1.559-2.002,2.116-4.895,2.892-10.011
	c1.448-10.568,3.783-20.691,6.898-29.813c2.113-6.008,3.227-12.349,3.227-18.8c0-6.008-1.002-11.792-2.892-17.911
	c-0.334-0.889-0.891-1.78-1.67-2.447c-1.668-1.558-4.003-3.115-6.562-4.561c0.443-0.334,0.777-0.779,1.111-1.224
	c1.336-1.78,1.336-4.338,0.111-6.23c-9.011-13.46-23.359-22.582-39.492-25.141h-0.888c-0.445,0-0.779,0-1.225,0.111
	c-3.449,0.779-8.121,2.448-12.346,4.005c-0.223-0.778-0.668-1.335-1.225-1.891c-1.002-1.001-2.447-1.558-3.895-1.558
	c-0.331,0-0.777,0-1.111,0.111c-26.7,5.674-46.056,29.48-46.056,56.623c0,5.923,0.907,11.665,2.637,17.145
	c3.047,9.651,5.98,19.39,7.31,29.423c0.948,7.151,1.437,10.412,3.182,12.279c0.554,1.224,1.556,4.227,1.556,5.34
	c0,10.123,3.783,19.801,10.568,27.365l-0.777,23.361c-5.785,1.335-21.026,1.446-27.257,1.446c-4.783,0-7.452,0-8.897,0.223
	c-2.686,0.294-5.155,0.737-7.485,1.276c5.247,4.743,8.607,11.535,8.607,19.166v65.083c0,14.827,12.009,26.851,26.836,26.871
	l132.5,0.173c7.319-0.027,13.302-6.014,13.302-13.34v-21.247C347.857,205.115,325.386,198.997,288.344,197.44z M264.425,214.349
	c-1.222,9.789-9.454,8.899-19.356,9.011h-0.557c-9.899,0.111-18.354,1.224-19.69-8.677l-2.113-5.896
	c2.336-2.002,3.561-4.673,3.561-8.455l0.891-28.033v-0.556c5.339,2.225,11.013,3.448,16.686,3.448
	c5.671,0,11.344-1.224,16.686-3.448v27.255c0,4.449,2.113,8.455,5.451,11.013L264.425,214.349z M275.104,132.474
	c-2.781,4.561-4.115,11.235-4.115,13.905c0,6.563-2.558,12.681-7.121,17.354l-1.222,1.335l-4.229,1.78
	c-9.231,4.005-19.913,4.005-29.144,0l-4.229-1.78l-1.222-1.335c-4.563-4.673-7.121-10.791-7.121-17.354
	c0-2.67-1.333-9.345-4.115-13.905c-0.111-0.668-0.334-1.892-0.668-4.117c-1.336-10.234-3.783-20.802-7.898-33.261
	c-1.336-4.116-2.002-8.455-2.002-12.904c0-8.62,7.939-7.771,12.668-14.57c4.06-5.837,25.403,25.569,69.762,4.781
	c0.779,3.337,1.222,6.563,1.222,9.789c0,4.672-0.777,9.233-2.224,13.571c-3.558,10.457-6.228,21.47-7.786,33.039
	C275.438,130.805,275.216,131.917,275.104,132.474z"/>
<linearGradient id="SVGID_16_" gradientUnits="userSpaceOnUse" x1="116.9238" y1="164.2291" x2="150.8863" y2="164.2291">
	<stop  offset="0.0722" style="stop-color:#E20413"/>
	<stop  offset="0.2456" style="stop-color:#E20913"/>
	<stop  offset="0.4442" style="stop-color:#E31713"/>
	<stop  offset="0.6552" style="stop-color:#E52E13"/>
	<stop  offset="0.8735" style="stop-color:#E84D13"/>
	<stop  offset="0.9072" style="stop-color:#E85313"/>
</linearGradient>
<path fill="url(#SVGID_16_)" d="M152.521,146.234c-1.336-8.68-8.771-15.346-17.824-15.346h-4.923
	c-9.997,0-18.101,8.105-18.101,18.103v22.803c0,3.894,1.255,7.479,3.346,10.431c1.336,8.679,8.771,15.346,17.824,15.346h4.923
	c9.999,0,18.103-8.105,18.103-18.102v-22.804C155.869,152.771,154.614,149.186,152.521,146.234z M135.926,182.208h-2.656
	c-4.88,0-8.889-3.595-9.612-8.275c-1.127-1.592-1.803-3.525-1.803-5.625v-12.296c0-5.391,4.37-9.762,9.761-9.762h2.655
	c11.663,0,9.751,12.304,9.751,12.304c-0.174,3.998-5.337-1.099-10.1-0.48c-3.501,0.455-3.546,6.023,0,5.562
	c5.084-0.661,8.43,1.249,11.765,4.201v4.61C145.687,177.838,141.317,182.208,135.926,182.208z"/>
</svg>
