<?xml version="1.0" encoding="utf-8"?>
<!-- Generator: Adobe Illustrator 18.1.0, SVG Export Plug-In . SVG Version: 6.00 Build 0)  -->
<svg version="1.1" id="Слой_1" xmlns="http://www.w3.org/2000/svg" xmlns:xlink="http://www.w3.org/1999/xlink" x="0px" y="0px"
	 viewBox="0 0 566.9 566.9" enable-background="new 0 0 566.9 566.9" xml:space="preserve">
<g>
	<path fill="#FFFFFF" d="M534.9,193.1H367.5V74.2c0-17.6-14.4-32-32-32H32c-17.6,0-32,14.4-32,32v213.7c0,17.6,14.4,32,32,32h10.1
		v39.1c0,5.6,3.1,10.7,8.1,13.3c4.9,2.5,11,2.1,15.5-1.1l71.5-51.2h62.2v118.9c0,17.6,14.3,32,32,32h198.3l71.5,51.2
		c2.5,1.8,5.5,2.8,8.7,2.8c2.3,0,4.7-0.6,6.8-1.7c5-2.6,8.1-7.7,8.1-13.3v-39.1h10.1c17.6,0,32-14.4,32-32V225.1
		C566.9,207.4,552.6,193.1,534.9,193.1z M495,455.9v24.9L443.6,444c-2.6-2-5.8-3.1-9.1-3.1H231.4c-1.2,0-2.2-1-2.2-2.2V225.1
		c0-1.2,1-2.2,2.2-2.2h303.6c1.2,0,2.2,1,2.2,2.2v213.7c0,1.2-1,2.2-2.2,2.2h-25C501.7,440.9,495,447.6,495,455.9z M123.8,292.8
		L72,329.9V305c0-8.2-6.7-14.9-14.9-14.9H32c-1.2,0-2.2-1-2.2-2.2V74.2c0-1.2,1-2.2,2.2-2.2h303.6c1.2,0,2.2,1,2.2,2.2v118.9h-49.3
		c2.5-4,3.9-8.6,3.9-13.6c0-14.2-11.5-25.7-25.7-25.7S241,165.3,241,179.5c0,5,1.5,9.7,3.9,13.6h-13.5c-17.6,0-32,14.4-32,32v65h-67
		C129.3,290,126.3,291,123.8,292.8z"/>
	<path fill="#FFFFFF" d="M98,153.8c-14.2,0-25.7,11.5-25.7,25.7s11.5,25.7,25.7,25.7s25.7-11.5,25.7-25.7S112.1,153.8,98,153.8z"/>
	<path fill="#FFFFFF" d="M181.8,205.2c14.2,0,25.7-11.5,25.7-25.7s-11.5-25.7-25.7-25.7s-25.7,11.5-25.7,25.7
		S167.6,205.2,181.8,205.2z"/>
	<path fill="#FFFFFF" d="M300.3,302.8c-14.2,0-25.7,11.5-25.7,25.7s11.5,25.7,25.7,25.7s25.7-11.5,25.7-25.7
		S314.5,302.8,300.3,302.8z"/>
	<path fill="#FFFFFF" d="M384.1,302.8c-14.2,0-25.7,11.5-25.7,25.7s11.5,25.7,25.7,25.7s25.7-11.5,25.7-25.7
		S398.3,302.8,384.1,302.8z"/>
	<path fill="#FFFFFF" d="M469,302.8c-14.2,0-25.7,11.5-25.7,25.7s11.5,25.7,25.7,25.7s25.7-11.5,25.7-25.7S483.1,302.8,469,302.8z"
		/>
</g>
</svg>
