<?xml version="1.0" encoding="utf-8"?>
<!-- Generator: Adobe Illustrator 18.1.0, SVG Export Plug-In . SVG Version: 6.00 Build 0)  -->
<svg version="1.1" id="Слой_1" xmlns="http://www.w3.org/2000/svg" xmlns:xlink="http://www.w3.org/1999/xlink" x="0px" y="0px"
	 viewBox="0 0 566.93 566.929" enable-background="new 0 0 566.93 566.929" xml:space="preserve">
<linearGradient id="SVGID_1_" gradientUnits="userSpaceOnUse" x1="-0.0054" y1="283.4703" x2="566.9354" y2="283.4703">
	<stop  offset="0.0722" style="stop-color:#E20413"/>
	<stop  offset="0.2456" style="stop-color:#E20913"/>
	<stop  offset="0.4442" style="stop-color:#E31713"/>
	<stop  offset="0.6552" style="stop-color:#E52E13"/>
	<stop  offset="0.8735" style="stop-color:#E84D13"/>
	<stop  offset="0.9072" style="stop-color:#E85313"/>
</linearGradient>
<path fill="url(#SVGID_1_)" d="M283.465,0C123.243,0-5.932,132.926,0.205,294.514C5.784,441.435,125.5,561.151,272.421,566.731
	c161.588,6.137,294.514-123.039,294.514-283.26C566.935,126.914,440.021,0,283.465,0L283.465,0z M283.465,522.533
	c-137.64,0-248.111-116.319-238.477-256.019c8.13-117.884,103.636-213.39,221.52-221.52
	c139.7-9.635,256.019,100.837,256.019,238.477C522.527,415.501,415.496,522.533,283.465,522.533L283.465,522.533z"/>
<linearGradient id="SVGID_2_" gradientUnits="userSpaceOnUse" x1="102.873" y1="225" x2="259.7808" y2="225">
	<stop  offset="0.0722" style="stop-color:#E20413"/>
	<stop  offset="0.2456" style="stop-color:#E20913"/>
	<stop  offset="0.4442" style="stop-color:#E31713"/>
	<stop  offset="0.6552" style="stop-color:#E52E13"/>
	<stop  offset="0.8735" style="stop-color:#E84D13"/>
	<stop  offset="0.9072" style="stop-color:#E85313"/>
</linearGradient>
<path fill="url(#SVGID_2_)" d="M259.781,225c0-44.343-36.789-80.094-81.511-78.396c-40.386,1.534-73.805,34.953-75.339,75.339
	c-1.698,44.721,34.052,81.51,78.396,81.51l0,0C224.656,303.454,259.781,268.329,259.781,225z M149.188,236.57
	c-8.586-25.949,13.136-49.773,38.699-45.003c13.192,2.461,23.984,12.97,26.722,26.107c4.586,22.004-12.086,41.372-33.282,41.372h0
	C166.963,259.046,153.701,250.207,149.188,236.57z"/>
<linearGradient id="SVGID_3_" gradientUnits="userSpaceOnUse" x1="311.3181" y1="224.9999" x2="459.8882" y2="224.9999">
	<stop  offset="0.0722" style="stop-color:#E20413"/>
	<stop  offset="0.2456" style="stop-color:#E20913"/>
	<stop  offset="0.4442" style="stop-color:#E31713"/>
	<stop  offset="0.6552" style="stop-color:#E52E13"/>
	<stop  offset="0.8735" style="stop-color:#E84D13"/>
	<stop  offset="0.9072" style="stop-color:#E85313"/>
</linearGradient>
<path fill="url(#SVGID_3_)" d="M385.603,185.773c-32.901,0-61.072,20.253-72.726,48.972c-5.722,14.101,5.044,29.482,20.262,29.482
	h2.131c8.476,0,15.661-5.446,18.962-13.252c5.168-12.22,17.268-20.794,31.371-20.794s26.202,8.574,31.371,20.794
	c3.302,7.806,10.487,13.252,18.962,13.252h2.131c15.218,0,25.984-15.381,20.262-29.482
	C446.675,206.026,418.504,185.773,385.603,185.773z"/>
<linearGradient id="SVGID_4_" gradientUnits="userSpaceOnUse" x1="176.6436" y1="389.3091" x2="390.2863" y2="389.3091">
	<stop  offset="0.0722" style="stop-color:#E20413"/>
	<stop  offset="0.2456" style="stop-color:#E20913"/>
	<stop  offset="0.4442" style="stop-color:#E31713"/>
	<stop  offset="0.6552" style="stop-color:#E52E13"/>
	<stop  offset="0.8735" style="stop-color:#E84D13"/>
	<stop  offset="0.9072" style="stop-color:#E85313"/>
</linearGradient>
<path fill="url(#SVGID_4_)" d="M283.465,399.671c-30.574,0-56.227-21.066-63.237-49.475c-2.313-9.373-11.174-15.657-20.828-15.657
	h-1.061c-14.231,0-24.526,13.462-20.997,27.248c12.113,47.314,55.033,82.291,106.124,82.291c51.09,0,94.011-34.977,106.124-82.291
	c3.529-13.786-6.767-27.248-20.997-27.248h-1.061c-9.654,0-18.515,6.284-20.828,15.657
	C339.692,378.605,314.039,399.671,283.465,399.671L283.465,399.671z"/>
</svg>
