<?xml version="1.0" encoding="utf-8"?>
<!-- Generator: Adobe Illustrator 18.1.0, SVG Export Plug-In . SVG Version: 6.00 Build 0)  -->
<svg version="1.1" id="Слой_1" xmlns="http://www.w3.org/2000/svg" xmlns:xlink="http://www.w3.org/1999/xlink" x="0px" y="0px"
	 viewBox="0 0 566.93 566.93" enable-background="new 0 0 566.93 566.93" xml:space="preserve">
<g>
	<path d="M243.185,152.067c0-10.598,3.749-19.225,11.263-25.89c7.532-6.656,17.149-9.985,28.903-9.985
		c12.034,0,21.773,3.398,29.218,10.204c7.445,6.805,11.176,15.362,11.176,25.671c0,10.458-3.801,19.155-11.386,26.1
		c-7.602,6.954-17.272,10.422-29.008,10.422c-11.596,0-21.195-3.503-28.78-10.528C246.969,171.047,243.185,162.385,243.185,152.067z
		 M248.335,466.379V228.765h69.174v237.615H248.335z"/>
</g>
<g>
	<path d="M283.456,566.926C127.154,566.926,0,439.763,0,283.461S127.154,0.004,283.456,0.004S566.93,127.159,566.93,283.461
		S439.758,566.926,283.456,566.926z M283.456,71.753c-116.732,0-211.708,94.976-211.708,211.708
		c0,116.74,94.976,211.716,211.708,211.716c116.749,0,211.725-94.976,211.725-211.716
		C495.181,166.729,400.205,71.753,283.456,71.753z"/>
</g>
</svg>
