<?xml version="1.0" encoding="utf-8"?>
<!-- Generator: Adobe Illustrator 18.1.0, SVG Export Plug-In . SVG Version: 6.00 Build 0)  -->
<svg version="1.1" id="Слой_1" xmlns="http://www.w3.org/2000/svg" xmlns:xlink="http://www.w3.org/1999/xlink" x="0px" y="0px"
	 viewBox="0 0 841.89 595.28" enable-background="new 0 0 841.89 595.28" xml:space="preserve">
<linearGradient id="SVGID_1_" gradientUnits="userSpaceOnUse" x1="275.3635" y1="595.2451" x2="285.2569" y2="28.4508" gradientTransform="matrix(1.05 0 0 -1.05 123.305 625.0477)">
	<stop  offset="0.6882" style="stop-color:#FFFFFF"/>
	<stop  offset="0.7541" style="stop-color:#FCFCFC"/>
	<stop  offset="0.8296" style="stop-color:#F1F1F1"/>
	<stop  offset="0.9098" style="stop-color:#E0E0E0"/>
	<stop  offset="0.9928" style="stop-color:#C7C7C7"/>
	<stop  offset="1" style="stop-color:#C5C5C5"/>
</linearGradient>
<path fill="url(#SVGID_1_)" d="M590.952,72.184C544.43,25.663,482.535,0,416.739,0c-65.791,0-127.686,25.663-174.288,72.264
	c-46.574,46.363-72.265,108.289-72.265,174.293c0,58.946,20.429,114.615,57.928,158.907v1.225l14.358,14.505l139.674,139.513
	l34.615,34.574l34.595-34.595l139.677-139.677c46.57-46.359,72.265-108.343,72.265-174.452
	C663.297,180.55,637.602,118.623,590.952,72.184z M339.543,435.839V391.86h17.309v43.978H339.543z M416.739,526.072l-45.853-45.799
	v-7.005c5.618-10.762,19.652-14.035,32.751-18.247c5.147-1.871,8.422-4.679,10.76-8.422c2.343,3.742,5.618,6.55,10.764,8.422
	c13.099,4.211,26.667,7.954,32.751,18.247c0,0,0,7.243,0,11.633L416.739,526.072z M367.145,435.84v-43.98h17.309v43.98H367.145z
	 M394.279,435.84v-43.98h17.314v43.98H394.279z M421.886,435.84v-43.98h17.309v43.98H421.886z M476.623,435.839V391.86h17.78v43.978
	H476.623z M466.799,435.839H449.49V391.86h17.309V435.839z M556.418,386.395l-17.569,17.567v-88.829l9.824-7.017l0.47-28.539
	l-9.358-0.468l0.466-48.657l7.019-5.146v-26.2h-10.76v-25.731l5.147-3.743V154.19h-6.083v-22.458l-7.956-7.954l-2.805-17.31
	c0-0.468,0-2.339-0.47-0.937l-0.466,1.871l-2.338,16.375l-7.019,7.954v21.989h-5.613v15.44l5.613,3.742v26.2h-10.294h-0.466v25.731
	l7.019,5.614v48.657h-8.891v29.007l8.422,7.017v19.183v27.135h-18.246c0-1.871,0-3.275,0-5.146
	c0-41.639-29.942-75.794-68.309-80.003v-5.147h-2.338v-1.871h-2.338v-4.679c2.809-0.936,4.677-3.742,4.677-6.549
	c0-3.276-1.868-6.082-4.677-6.55v-2.808c1.403-0.936,2.338-2.339,2.338-4.211s-0.937-3.275-2.338-4.211v-8.421
	c4.211-2.339,7.019-7.018,7.019-12.164c0-4.211-1.872-7.954-4.211-10.293c0.932,1.871,1.403,4.211,1.403,6.549
	c0,7.487-6.083,14.036-13.103,14.036c-3.275,0-6.549-1.404-8.887-3.743c2.338,4.211,6.549,7.487,11.696,7.487
	c0.937,0,1.402,0,2.338,0v7.017c-1.403,0.937-2.338,2.339-2.338,4.211s0.937,3.275,2.338,4.211v2.808
	c-2.805,0.936-4.677,3.742-4.677,6.549c0,3.276,1.872,5.615,4.677,6.55v4.679h-2.338v1.871h-2.338v4.679
	c-39.3,3.275-70.177,37.896-70.177,80.003c0,1.871,0,3.275,0.466,5.146h-19.182V315.13l9.824-7.017l-0.466-29.007l-9.358-0.468
	l0.466-48.656l7.019-5.147v-26.2h-10.294v-25.731l5.147-3.742v-15.439h-6.083v-22.458l-7.952-7.485l-2.809-17.31
	c0-0.468,0-2.339-0.466-0.937l-0.47,1.871l-2.338,16.375l-7.015,7.954v21.99h-5.618v15.44l5.618,3.742v26.2h-10.294h-0.47v25.731
	l7.019,5.614v48.657h-8.887v29.007l8.422,7.017v87.1l-15.692-15.674c0-0.164,0-0.164,0-0.164
	c-35.898-35.735-57.928-85.177-57.928-139.839c0-54.501,22.03-103.942,57.928-139.677C312.8,71.143,362.243,48.95,416.74,48.95
	c54.502,0,103.943,22.192,139.677,57.927c35.898,35.735,57.928,85.178,57.928,139.677
	C614.344,301.218,592.314,350.66,556.418,386.395z"/>
<g>
	<linearGradient id="SVGID_2_" gradientUnits="userSpaceOnUse" x1="483.0938" y1="335.9682" x2="208.4483" y2="494.5348">
		<stop  offset="0" style="stop-color:#D0090F"/>
		<stop  offset="1" style="stop-color:#E58618"/>
	</linearGradient>
	<rect x="339.542" y="391.861" fill="url(#SVGID_2_)" width="17.311" height="43.978"/>
	<linearGradient id="SVGID_3_" gradientUnits="userSpaceOnUse" x1="510.6938" y1="335.9714" x2="236.0578" y2="494.5325">
		<stop  offset="0" style="stop-color:#D0090F"/>
		<stop  offset="1" style="stop-color:#E58618"/>
	</linearGradient>
	<rect x="367.148" y="391.861" fill="url(#SVGID_3_)" width="17.309" height="43.979"/>
	<linearGradient id="SVGID_4_" gradientUnits="userSpaceOnUse" x1="1858.775" y1="-586.0568" x2="-1077.349" y2="1109.1152">
		<stop  offset="0" style="stop-color:#D0090F"/>
		<stop  offset="1" style="stop-color:#E58618"/>
	</linearGradient>
	<path fill="url(#SVGID_4_)" d="M556.414,106.944c-35.734-35.734-85.177-57.927-139.676-57.927
		c-54.5,0-103.941,22.192-139.676,57.927c-35.898,35.735-57.928,85.178-57.928,139.677c0,54.662,22.03,104.104,57.928,139.839
		c0,0,0,0,0,0.164l15.694,15.676v-87.167l-8.422-7.017v-29.008h8.889V230.45l-7.019-5.614v-25.731h0.47h10.292v-26.2l-5.615-3.742
		v-15.441h5.615v-21.989l7.017-7.954l2.338-16.375l0.47-1.871c0.466-1.403,0.466,0.468,0.466,0.937l2.809,17.31l7.952,7.485v22.456
		h6.083v15.44l-5.147,3.742v25.731h10.294v26.2l-7.019,5.147l-0.466,48.656l9.358,0.468l0.466,29.008l-9.824,7.017v46.318h19.182
		c-0.468-1.871-0.468-3.275-0.468-5.146c0-42.107,30.88-76.728,70.179-80.003v-4.679h2.338v-1.871h2.338v-4.679
		c-2.807-0.936-4.677-3.275-4.677-6.55c0-2.807,1.87-5.614,4.677-6.549v-2.808c-1.402-0.937-2.338-2.339-2.338-4.211
		s0.937-3.275,2.338-4.211v-7.017c-0.937,0-1.402,0-2.338,0c-5.147,0-9.358-3.276-11.696-7.487c2.338,2.339,5.613,3.743,8.887,3.743
		c7.019,0,13.102-6.55,13.102-14.036c0-2.338-0.47-4.678-1.404-6.549c2.341,2.339,4.211,6.083,4.211,10.293
		c0,5.146-2.807,9.825-7.017,12.164v8.421c1.402,0.937,2.338,2.339,2.338,4.211c0,1.871-0.937,3.276-2.338,4.211v2.808
		c2.807,0.468,4.677,3.275,4.677,6.55c0,2.807-1.87,5.614-4.677,6.549v4.679h2.338v1.871h2.338v5.147
		c38.365,4.209,68.309,38.364,68.309,80.003c0,1.871,0,3.275,0,5.146h18.246v-27.135v-19.183l-8.422-7.017v-29.008h8.889V230.45
		l-7.017-5.614v-25.731h0.466h10.294v-26.2l-5.613-3.742v-15.441h5.613v-21.989l7.017-7.954l2.34-16.375l0.466-1.871
		c0.47-1.403,0.47,0.468,0.47,0.937l2.804,17.31l7.956,7.954v22.458h6.082v15.439l-5.145,3.743v25.731h10.76v26.2l-7.019,5.146
		l-0.466,48.657l9.358,0.468l-0.47,28.539l-9.824,7.017v88.893l17.564-17.565c35.9-35.735,57.928-85.177,57.928-139.839
		C614.342,192.121,592.314,142.679,556.414,106.944z"/>
	<linearGradient id="SVGID_5_" gradientUnits="userSpaceOnUse" x1="706.1263" y1="317.364" x2="120.1588" y2="655.6725">
		<stop  offset="0" style="stop-color:#D0090F"/>
		<stop  offset="1" style="stop-color:#E58618"/>
	</linearGradient>
	<path fill="url(#SVGID_5_)" d="M425.161,454.957c-5.145-1.871-8.422-4.679-10.763-8.422c-2.338,3.742-5.613,6.55-10.76,8.422
		c-13.099,4.211-27.135,7.485-32.751,18.247v7.072l28.072,28.037v0.065l17.778,17.758l13.101-13.101v-27.603h-3.274
		c0.011-0.022,0.018-0.043,0.029-0.065h3.249v27.604l28.071-28.071c0-4.386,0-11.696,0-11.696
		C451.831,462.911,438.262,459.169,425.161,454.957z M398.961,485.433v-0.065h0.001h3.235c0.013,0.021,0.024,0.045,0.038,0.065
		H398.961z M427.965,479.801c-0.01-7.478-6.087-13.551-13.567-13.551c-7.469,0-13.537,6.055-13.565,13.518c0-0.005,0-0.01,0-0.015
		c0-7.487,6.082-13.568,13.567-13.568c7.488,0,13.568,6.083,13.568,13.568C427.968,479.769,427.965,479.785,427.965,479.801z"/>
	<linearGradient id="SVGID_6_" gradientUnits="userSpaceOnUse" x1="621.8898" y1="335.114" x2="344.2324" y2="495.4196">
		<stop  offset="0" style="stop-color:#D0090F"/>
		<stop  offset="1" style="stop-color:#E58618"/>
	</linearGradient>
	<rect x="476.624" y="391.861" fill="url(#SVGID_6_)" width="17.78" height="43.978"/>
	<linearGradient id="SVGID_7_" gradientUnits="userSpaceOnUse" x1="565.4393" y1="335.9676" x2="290.79" y2="494.5364">
		<stop  offset="0" style="stop-color:#D0090F"/>
		<stop  offset="1" style="stop-color:#E58618"/>
	</linearGradient>
	<rect x="421.885" y="391.861" fill="url(#SVGID_7_)" width="17.311" height="43.979"/>
	<linearGradient id="SVGID_8_" gradientUnits="userSpaceOnUse" x1="593.041" y1="335.9682" x2="318.3955" y2="494.5348">
		<stop  offset="0" style="stop-color:#D0090F"/>
		<stop  offset="1" style="stop-color:#E58618"/>
	</linearGradient>
	<rect x="449.489" y="391.861" fill="url(#SVGID_8_)" width="17.311" height="43.978"/>
	<linearGradient id="SVGID_9_" gradientUnits="userSpaceOnUse" x1="537.8422" y1="335.9638" x2="263.1796" y2="494.5403">
		<stop  offset="0" style="stop-color:#D0090F"/>
		<stop  offset="1" style="stop-color:#E58618"/>
	</linearGradient>
	<rect x="394.281" y="391.861" fill="url(#SVGID_9_)" width="17.314" height="43.979"/>
</g>
</svg>
