<?xml version="1.0" encoding="utf-8"?>
<!-- Generator: Adobe Illustrator 18.1.0, SVG Export Plug-In . SVG Version: 6.00 Build 0)  -->
<svg version="1.1" id="Слой_1" xmlns="http://www.w3.org/2000/svg" xmlns:xlink="http://www.w3.org/1999/xlink" x="0px" y="0px"
	 viewBox="0 0 566.93 253.392" enable-background="new 0 0 566.93 253.392" xml:space="preserve">
<g>
	<linearGradient id="SVGID_1_" gradientUnits="userSpaceOnUse" x1="174.9873" y1="281.1482" x2="174.9873" y2="-29.0717">
		<stop  offset="0.0722" style="stop-color:#E20413"/>
		<stop  offset="0.2456" style="stop-color:#E20913"/>
		<stop  offset="0.4442" style="stop-color:#E31713"/>
		<stop  offset="0.6552" style="stop-color:#E52E13"/>
		<stop  offset="0.8735" style="stop-color:#E84D13"/>
		<stop  offset="0.9072" style="stop-color:#E85313"/>
	</linearGradient>
	<path fill="url(#SVGID_1_)" d="M211.143,162.953c-17.521-32.388-51.503-46.724-51.503-46.724s1.062-5.84,29.202,12.212
		c20.486,13.142,40.379,29.4,53.183,50.78c7.31-16.013,11.416-33.797,11.416-52.55C253.442,57.346,197.764,1.057,128.691,0
		c-38.315,29.26-45.05,82.21-5.686,109.858c44.6,31.326,50.441,62.122,35.574,96.634c-9.095,21.114-31.5,36.857-47.528,45.902
		c5.139,0.634,10.361,0.999,15.671,0.999c2.849,0,5.667-0.128,8.47-0.313c24.779-17.766,39.351-40.904,46.218-65.702
		c9.557-34.512-39.822-71.679-39.822-71.679s2.124-3.717,10.088,1.062c7.964,4.779,54.157,39.29,53.095,78.05
		c-0.476,17.362-6.598,30.979-13.212,40.737c11.642-6.948,22.06-15.717,30.896-25.903
		C221.586,194.336,218.705,176.931,211.143,162.953z"/>
	<linearGradient id="SVGID_2_" gradientUnits="userSpaceOnUse" x1="75.0705" y1="271.272" x2="75.0705" y2="-22.5667">
		<stop  offset="0.0722" style="stop-color:#E20413"/>
		<stop  offset="0.2456" style="stop-color:#E20913"/>
		<stop  offset="0.4442" style="stop-color:#E31713"/>
		<stop  offset="0.6552" style="stop-color:#E52E13"/>
		<stop  offset="0.8735" style="stop-color:#E84D13"/>
		<stop  offset="0.9072" style="stop-color:#E85313"/>
	</linearGradient>
	<path fill="url(#SVGID_2_)" d="M147.959,174.634c14.867-47.255-50.441-63.183-69.024-105.66
		C68.221,44.484,79.743,20.719,91.424,4.97C82.776,7.474,74.5,10.849,66.72,15.039c-20.649,66.583,36.639,94.819,36.639,94.819
		c2.124,0.531-5.31,0-5.31,0c-45.38-20.343-57.598-55.642-60.893-72.83c-4.342,4.338-8.37,8.991-12.049,13.92
		C42.575,87.19,87.43,110.92,87.43,110.92l-6.371,0.531c-25.861-8.62-49.979-28.743-66.067-44.592C5.434,84.676,0,105.037,0,126.671
		c0,53.981,33.768,100.05,81.321,118.31C105.044,229.967,138.627,204.296,147.959,174.634z"/>
</g>
<g>
	<path fill="#18152E" d="M387.027,63.455l16.831,4.08c-1.783,4.166-3.613,8.158-5.484,11.984h41.188v15.557h-49.473
		c-3.145,5.268-6.419,10.071-9.819,14.406h49.728v14.79c-18.276,13.855-30.688,24.906-37.232,33.152
		c-3.145,3.485-4.761,6.757-4.844,9.816c0,3.485,3.441,5.229,10.328,5.229h12.241c8.244,0,12.62-3.402,13.13-10.201
		c1.024-6.885,1.7-12.496,2.043-16.831c6.373,2.381,11.815,4.122,16.321,5.226c-1.107,8.332-2.552,15.685-4.335,22.06
		c-2.381,9.52-10.375,14.279-23.973,14.279h-15.557c-17.506,0-26.265-6.503-26.265-19.508c0-5.013,1.83-10.029,5.484-15.045
		c5.525-7.734,15.089-16.872,28.687-27.413h-31.749v-15.555h3.701c-2.89-2.635-5.827-5.141-8.8-7.521v46.536h-16.576v7.651h17.085
		v15.3h-17.085v18.489h-16.576v-18.489h-19.253v-15.3h19.253v-7.651h-16.571V95.331h16.571v-7.397h-19.378v-15.3h19.378v-8.67
		h16.576v8.67h19.128v15.3h-19.128v7.397h16.576C375.046,86.403,380.992,75.779,387.027,63.455z M355.154,108.336h-21.675v7.649
		h21.675V108.336z M355.154,135.619v-7.776h-21.675v7.776H355.154z"/>
	<path fill="#18152E" d="M448.227,176.42l-3.316-18.996c4.761-1.276,9.439-2.508,14.029-3.698V109.1h-12.626V93.036h12.626V64.219
		h16.316v28.817h12.241V109.1h-12.241v40.164c4.507-1.276,8.842-2.55,13.01-3.826c-0.515,8.584-0.681,14.577-0.515,17.977
		C474.237,167.75,461.06,172.085,448.227,176.42z M520.903,189.425v-32.767h-14.408v6.12h-15.552V83.472h29.96V63.71h16.067v19.762
		h29.96v79.052h-15.552v-5.866H536.97v32.767H520.903z M506.495,113.053h14.408v-14.79h-14.408V113.053z M506.495,141.867h14.408
		v-14.79h-14.408V141.867z M551.378,98.262H536.97v14.79h14.408V98.262z M536.97,141.867h14.408v-14.79H536.97V141.867z"/>
</g>
</svg>
