<?xml version="1.0" encoding="utf-8"?>
<!-- Generator: Adobe Illustrator 18.1.0, SVG Export Plug-In . SVG Version: 6.00 Build 0)  -->
<svg version="1.1" id="Слой_1" xmlns="http://www.w3.org/2000/svg" xmlns:xlink="http://www.w3.org/1999/xlink" x="0px" y="0px"
	 viewBox="0 0 841.89 595.28" enable-background="new 0 0 841.89 595.28" xml:space="preserve">
<g>
	
		<linearGradient id="SVGID_1_" gradientUnits="userSpaceOnUse" x1="66.8698" y1="455.0074" x2="473.7038" y2="220.1217" gradientTransform="matrix(1.05 0 0 -1.05 123.305 625.0477)">
		<stop  offset="0" style="stop-color:#D0090F"/>
		<stop  offset="1" style="stop-color:#E58618"/>
	</linearGradient>
	<path fill="url(#SVGID_1_)" d="M595.211,72.273C550.628,27.689,488.941,0,420.943,0c-67.996,0-129.68,27.689-174.266,72.273
		c-44.79,44.585-72.271,106.27-72.271,174.267c0,68.2,27.481,129.887,72.271,174.471c0,0,0,0,0.204,0L420.943,595.28
		l174.268-174.267c44.787-44.585,72.273-106.271,72.273-174.471C667.484,178.543,639.999,116.858,595.211,72.273z M552.025,377.826
		L420.967,508.881l-130.875-131.03c-0.902-0.905-1.831-1.776-2.786-2.617c-33.445-34.559-51.825-80.12-51.825-128.694
		c0-49.621,19.277-96.139,54.383-131.081c35.07-35.07,81.622-54.385,131.08-54.385c49.46,0,96.012,19.314,131.181,54.482
		c35.006,34.85,54.285,81.366,54.285,130.984C606.41,296.289,587.129,342.88,552.025,377.826z"/>
	
		<linearGradient id="SVGID_2_" gradientUnits="userSpaceOnUse" x1="186.1686" y1="416.6707" x2="380.9185" y2="304.2319" gradientTransform="matrix(1.05 0 0 -1.05 123.305 625.0477)">
		<stop  offset="0" style="stop-color:#D0090F"/>
		<stop  offset="1" style="stop-color:#E58618"/>
	</linearGradient>
	<path fill="url(#SVGID_2_)" d="M420.943,128.461c-32.57,0-62.091,13.233-83.266,34.609c-21.579,21.376-34.608,50.896-34.608,83.47
		c0,32.573,13.03,62.093,34.608,83.469c21.173,21.376,50.694,34.609,83.266,34.609c32.575,0,62.094-13.233,83.471-34.609
		c21.579-21.376,34.608-50.896,34.608-83.469c0-32.574-13.029-62.094-34.608-83.47C483.037,141.695,453.518,128.461,420.943,128.461
		z"/>
</g>
</svg>
