<?xml version="1.0" encoding="utf-8"?>
<!-- Generator: Adobe Illustrator 18.1.0, SVG Export Plug-In . SVG Version: 6.00 Build 0)  -->
<svg version="1.1" id="Слой_1" xmlns="http://www.w3.org/2000/svg" xmlns:xlink="http://www.w3.org/1999/xlink" x="0px" y="0px"
	 viewBox="0 0 841.89 595.28" enable-background="new 0 0 841.89 595.28" xml:space="preserve">
<linearGradient id="SVGID_1_" gradientUnits="userSpaceOnUse" x1="183.3777" y1="149.7091" x2="392.7301" y2="512.3181" gradientTransform="matrix(1.05 0 0 -1.05 123.305 625.0477)">
	<stop  offset="0.0722" style="stop-color:#C20B19"/>
	<stop  offset="0.2821" style="stop-color:#C31A1A"/>
	<stop  offset="0.5225" style="stop-color:#C52E1B"/>
	<stop  offset="0.7769" style="stop-color:#C9451D"/>
	<stop  offset="0.9072" style="stop-color:#CC541F"/>
</linearGradient>
<polygon fill="url(#SVGID_1_)" points="438.649,261.306 403.334,261.238 403.239,310.351 438.555,310.418 "/>
<g>
	<linearGradient id="SVGID_2_" gradientUnits="userSpaceOnUse" x1="238.0626" y1="-67.3759" x2="1261.9233" y2="1706.0023">
		<stop  offset="0" style="stop-color:#D0090F"/>
		<stop  offset="1" style="stop-color:#E58618"/>
	</linearGradient>
	<path fill="url(#SVGID_2_)" d="M618.547,249.475c0-54.501-22.028-103.941-57.927-139.677
		c-35.735-35.735-85.176-57.927-139.677-57.927c-54.5,0-103.941,22.192-139.677,57.927c-35.899,35.735-57.927,85.177-57.927,139.677
		c0,36.551,10.117,70.655,27.25,100.026l0.164-52.868l15.665,13.543l15.99-13.543v50.42l18.766,0.164l0.164-50.583l15.175,13.543
		l16.643-13.379l-0.164,50.42h37.53l0.164-85.992l49.441-107.367l49.115,107.531h0.327l-0.164,86.156h39.651l0.164-50.421
		l15.828,13.38l15.99-13.38l-0.163,50.421l18.927,0.164v-50.584l15.99,13.544l15.829-13.38l-0.164,51.889
		C608.594,319.803,618.547,285.862,618.547,249.475z"/>
	<linearGradient id="SVGID_3_" gradientUnits="userSpaceOnUse" x1="383.0882" y1="375.3128" x2="602.6928" y2="755.679">
		<stop  offset="0" style="stop-color:#D0090F"/>
		<stop  offset="1" style="stop-color:#E58618"/>
	</linearGradient>
	<polygon fill="url(#SVGID_3_)" points="403.218,476.409 438.534,476.409 438.67,405.353 403.354,405.287 	"/>
</g>
<linearGradient id="SVGID_4_" gradientUnits="userSpaceOnUse" x1="267.5272" y1="437.674" x2="294.9925" y2="485.0393" gradientTransform="matrix(1.05 0 0 -1.05 123.305 625.0477)">
	<stop  offset="0.0775" style="stop-color:#FFFFFF"/>
	<stop  offset="0.2726" style="stop-color:#FCFCFC"/>
	<stop  offset="0.4959" style="stop-color:#F1F1F1"/>
	<stop  offset="0.7333" style="stop-color:#E0E0E0"/>
	<stop  offset="0.9788" style="stop-color:#C7C7C7"/>
	<stop  offset="1" style="stop-color:#C5C5C5"/>
</linearGradient>
<polygon fill="url(#SVGID_4_)" points="401.644,163.999 420.882,154.587 440.076,164.054 436.454,144.054 452.036,129.916 
	430.56,126.969 420.997,108.765 411.344,126.943 389.853,129.829 405.363,144.01 "/>
<linearGradient id="SVGID_5_" gradientUnits="userSpaceOnUse" x1="274.3353" y1="880.7545" x2="289.2602" y2="25.7043" gradientTransform="matrix(1.05 0 0 -1.05 123.305 625.0477)">
	<stop  offset="0.6882" style="stop-color:#FFFFFF"/>
	<stop  offset="0.7541" style="stop-color:#FCFCFC"/>
	<stop  offset="0.8296" style="stop-color:#F1F1F1"/>
	<stop  offset="0.9098" style="stop-color:#E0E0E0"/>
	<stop  offset="0.9928" style="stop-color:#C7C7C7"/>
	<stop  offset="1" style="stop-color:#C5C5C5"/>
</linearGradient>
<path fill="url(#SVGID_5_)" d="M595.155,75.068C548.633,28.548,486.738,2.884,420.944,2.884S293.256,28.548,246.654,75.148
	c-46.572,46.363-72.265,108.289-72.265,174.293c0,58.946,20.429,114.615,57.928,158.907v1.225l14.358,14.505l139.676,139.513
	l34.615,34.574l34.595-34.595l139.676-139.677c46.572-46.359,72.265-108.343,72.265-174.452
	C667.5,183.434,641.807,121.508,595.155,75.068z M437.337,405.352l-0.135,54.74h-35.316l0.135-54.805L437.337,405.352z
	 M402.197,310.35l0.096-49.112l35.316,0.067l-0.096,49.112L402.197,310.35z M252.46,352.452c2.892,4.738,6.011,9.314,9.262,13.791
	C258.44,361.784,255.361,357.188,252.46,352.452z M266.78,372.993c2.829,3.563,5.909,6.906,8.985,10.254
	C272.678,379.908,269.63,376.54,266.78,372.993z M577.752,369.468c4.916-6.495,9.486-13.27,13.619-20.335l0.073-51.906
	l-15.74,13.451l-16.05-13.51l-0.096,50.485l-18.815-0.036l0.096-50.484l-15.919,13.451l-15.871-13.509l-0.096,50.484l-39.718-0.075
	l0.164-86.116l-0.271-0.001l-49.112-107.574L370.499,261.18l-0.164,86.116l-37.515-0.07l0.096-50.484l-16.532,13.45l-15.258-13.508
	l-0.096,50.484l-18.815-0.035l0.096-50.484l-16.094,13.451l-15.695-13.509l-0.076,52.552c-17.15-29.277-27.104-63.27-27.104-99.697
	c0-54.501,22.03-103.942,57.928-139.677c35.734-35.734,85.176-57.927,139.676-57.927s103.941,22.192,139.676,57.927
	c35.9,35.735,57.928,85.178,57.928,139.677C618.547,294.672,603.296,336.193,577.752,369.468z"/>
</svg>
