<?xml version="1.0" encoding="utf-8"?>
<!-- Generator: Adobe Illustrator 18.1.0, SVG Export Plug-In . SVG Version: 6.00 Build 0)  -->
<svg version="1.1" id="Слой_1" xmlns="http://www.w3.org/2000/svg" xmlns:xlink="http://www.w3.org/1999/xlink" x="0px" y="0px"
	 viewBox="0 0 566.93 454.83" enable-background="new 0 0 566.93 454.83" xml:space="preserve">
<g>
	<linearGradient id="SVGID_1_" gradientUnits="userSpaceOnUse" x1="331.4386" y1="214.3378" x2="484.8316" y2="214.3378">
		<stop  offset="0.0722" style="stop-color:#E20413"/>
		<stop  offset="0.2456" style="stop-color:#E20913"/>
		<stop  offset="0.4442" style="stop-color:#E31713"/>
		<stop  offset="0.6552" style="stop-color:#E52E13"/>
		<stop  offset="0.8735" style="stop-color:#E84D13"/>
		<stop  offset="0.9072" style="stop-color:#E85313"/>
	</linearGradient>
	<path fill="url(#SVGID_1_)" d="M475.237,204.748H341.027c-5.377,0-9.589,4.21-9.589,9.59c0,5.378,4.211,9.59,9.589,9.59h134.209
		c5.381,0,9.595-4.211,9.595-9.59C484.832,208.958,480.618,204.748,475.237,204.748z"/>
	<linearGradient id="SVGID_2_" gradientUnits="userSpaceOnUse" x1="331.4386" y1="268.0221" x2="484.8316" y2="268.0221">
		<stop  offset="0.0722" style="stop-color:#E20413"/>
		<stop  offset="0.2456" style="stop-color:#E20913"/>
		<stop  offset="0.4442" style="stop-color:#E31713"/>
		<stop  offset="0.6552" style="stop-color:#E52E13"/>
		<stop  offset="0.8735" style="stop-color:#E84D13"/>
		<stop  offset="0.9072" style="stop-color:#E85313"/>
	</linearGradient>
	<path fill="url(#SVGID_2_)" d="M475.237,258.432H341.027c-5.377,0-9.589,4.211-9.589,9.59c0,5.377,4.211,9.59,9.589,9.59h134.209
		c5.381,0,9.595-4.213,9.595-9.59C484.832,262.644,480.618,258.432,475.237,258.432z"/>
	<linearGradient id="SVGID_3_" gradientUnits="userSpaceOnUse" x1="143.492" y1="268.9865" x2="323.7255" y2="268.9865">
		<stop  offset="0.0722" style="stop-color:#E20413"/>
		<stop  offset="0.2456" style="stop-color:#E20913"/>
		<stop  offset="0.4442" style="stop-color:#E31713"/>
		<stop  offset="0.6552" style="stop-color:#E52E13"/>
		<stop  offset="0.8735" style="stop-color:#E84D13"/>
		<stop  offset="0.9072" style="stop-color:#E85313"/>
	</linearGradient>
	<path fill="url(#SVGID_3_)" d="M153.083,333.225h161.052c5.377,0,9.591-4.213,9.591-9.591V214.338c0-5.379-4.214-9.59-9.591-9.59
		H153.083c-5.379,0-9.591,4.21-9.591,9.59v109.296C143.492,329.012,147.703,333.225,153.083,333.225z M304.598,314.044h-14.419
		l14.419-15.13V314.044z M304.598,283.046l-29.537,30.998h-16.95l46.487-48.928V283.046z M304.598,249.18l-61.625,64.865h-15.584
		l77.21-82.526V249.18z M296.685,223.928l-84.313,90.117h-17.26l84.321-90.117H296.685z M264.419,223.928l-84.321,90.117h-16.163
		l84.321-90.117H264.419z M162.674,223.928h13.165l-13.165,14.068V223.928z M162.674,254.041l28.179-30.113h15.457l-43.637,46.642
		V254.041z M162.674,286.617l58.653-62.689h11.916l-70.569,75.419V286.617z"/>
	<linearGradient id="SVGID_4_" gradientUnits="userSpaceOnUse" x1="143.492" y1="128.0271" x2="484.8316" y2="128.0271">
		<stop  offset="0.0722" style="stop-color:#E20413"/>
		<stop  offset="0.2456" style="stop-color:#E20913"/>
		<stop  offset="0.4442" style="stop-color:#E31713"/>
		<stop  offset="0.6552" style="stop-color:#E52E13"/>
		<stop  offset="0.8735" style="stop-color:#E84D13"/>
		<stop  offset="0.9072" style="stop-color:#E85313"/>
	</linearGradient>
	<path fill="url(#SVGID_4_)" d="M475.237,80.077H153.083c-5.379,0-9.591,4.262-9.591,9.59v76.721c0,5.379,4.211,9.59,9.591,9.59
		h322.154c5.381,0,9.595-4.21,9.595-9.59V89.666C484.832,84.339,480.618,80.077,475.237,80.077z"/>
	<linearGradient id="SVGID_5_" gradientUnits="userSpaceOnUse" x1="143.492" y1="363.9221" x2="484.8316" y2="363.9221">
		<stop  offset="0.0722" style="stop-color:#E20413"/>
		<stop  offset="0.2456" style="stop-color:#E20913"/>
		<stop  offset="0.4442" style="stop-color:#E31713"/>
		<stop  offset="0.6552" style="stop-color:#E52E13"/>
		<stop  offset="0.8735" style="stop-color:#E84D13"/>
		<stop  offset="0.9072" style="stop-color:#E85313"/>
	</linearGradient>
	<path fill="url(#SVGID_5_)" d="M475.237,354.332H153.083c-5.379,0-9.591,4.213-9.591,9.59c0,5.378,4.211,9.59,9.591,9.59h322.154
		c5.381,0,9.595-4.211,9.595-9.59C484.832,358.545,480.618,354.332,475.237,354.332z"/>
	<linearGradient id="SVGID_6_" gradientUnits="userSpaceOnUse" x1="331.4386" y1="323.6347" x2="484.8316" y2="323.6347">
		<stop  offset="0.0722" style="stop-color:#E20413"/>
		<stop  offset="0.2456" style="stop-color:#E20913"/>
		<stop  offset="0.4442" style="stop-color:#E31713"/>
		<stop  offset="0.6552" style="stop-color:#E52E13"/>
		<stop  offset="0.8735" style="stop-color:#E84D13"/>
		<stop  offset="0.9072" style="stop-color:#E85313"/>
	</linearGradient>
	<path fill="url(#SVGID_6_)" d="M475.237,314.044H341.027c-5.377,0-9.589,4.262-9.589,9.59c0,5.378,4.211,9.591,9.589,9.591h134.209
		c5.381,0,9.595-4.213,9.595-9.591C484.832,318.307,480.618,314.044,475.237,314.044z"/>
	<linearGradient id="SVGID_7_" gradientUnits="userSpaceOnUse" x1="0" y1="227.4151" x2="567.481" y2="227.4151">
		<stop  offset="0.0722" style="stop-color:#E20413"/>
		<stop  offset="0.2456" style="stop-color:#E20913"/>
		<stop  offset="0.4442" style="stop-color:#E31713"/>
		<stop  offset="0.6552" style="stop-color:#E52E13"/>
		<stop  offset="0.8735" style="stop-color:#E84D13"/>
		<stop  offset="0.9072" style="stop-color:#E85313"/>
	</linearGradient>
	<path fill="url(#SVGID_7_)" d="M566.825,373.738V43.751C566.825,19.626,547.294,0,523.289,0H107.088
		C82.964,0,63.337,19.626,63.337,43.751v21.341H43.751C19.627,65.093,0,84.719,0,108.844v272.428c0,6.048,1.297,11.359,2.942,15.664
		c7.701,33.203,37.36,56.799,72.367,56.799h408.14c3.166,0.723,6.391,1.095,9.597,1.095c41.043,0,74.435-33.391,74.435-74.436
		C567.481,378.159,567.26,375.929,566.825,373.738z M97.47,370.823c-1.168,1.928-1.722,4.007-1.37,6.545
		c0.202,0.965,0.202,2.081,0.202,3.249c0,0.963,0,1.319-0.202,2.689c-1.52,9.946-10.149,17.252-20.499,17.252h-0.204
		c-11.668-0.203-21.107-9.185-21.107-20.702c0-1.522-0.354-3.096-0.964-4.213V118.438H97.47V370.823z M497.668,400.913
		c-0.916-0.355-2.082-0.558-3.248-0.558H109.902c1.572-2.689,2.892-5.531,3.856-8.424c1.728-1.724,2.896-4.21,2.896-6.9V53.235
		h396.942v327.939c0,0.762,0.204,1.523,0.204,2.132C512.632,392.135,506.141,399.036,497.668,400.913z"/>
</g>
</svg>
