<?xml version="1.0" encoding="utf-8"?>
<!-- Generator: Adobe Illustrator 18.1.0, SVG Export Plug-In . SVG Version: 6.00 Build 0)  -->
<svg version="1.1" id="Слой_1" xmlns="http://www.w3.org/2000/svg" xmlns:xlink="http://www.w3.org/1999/xlink" x="0px" y="0px"
	 viewBox="0 0 566.93 566.93" enable-background="new 0 0 566.93 566.93" xml:space="preserve">
<linearGradient id="SVGID_1_" gradientUnits="userSpaceOnUse" x1="-80.6412" y1="282.6389" x2="789.4094" y2="282.6389">
	<stop  offset="0.0722" style="stop-color:#E30413"/>
	<stop  offset="0.2821" style="stop-color:#E41413"/>
	<stop  offset="0.5225" style="stop-color:#E52A13"/>
	<stop  offset="0.7769" style="stop-color:#E74413"/>
	<stop  offset="0.9072" style="stop-color:#E95313"/>
</linearGradient>
<path fill="url(#SVGID_1_)" d="M19.395,546.358L19.395,546.358c22.589,24.475,60.977,25.32,84.622,1.863l133.945-132.879
	c30.943,16.661,66.383,26.16,104.02,26.16c60.9,0,116.086-24.74,156.051-64.703c40.342-39.963,64.701-95.151,64.701-156.047
	c0-60.898-24.359-116.086-64.701-156.049C458.068,24.74,402.882,0,341.982,0c-60.891,0-116.081,24.74-155.666,64.703
	c-40.342,39.963-64.701,95.151-64.701,156.049c0,42.69,12.182,82.439,33.238,116.242L21.981,463.964
	C-1.211,486.126-2.362,522.786,19.395,546.358z M267.436,145.056c19.722-19.911,46.196-30.875,74.546-30.875
	c28.406,0,55.153,11.102,75.693,31.64c19.913,19.725,30.878,46.335,30.878,74.931c0,28.594-10.965,55.204-31.254,75.305
	c-20.164,20.159-46.911,31.263-75.317,31.263c-28.35,0-54.823-10.965-75.308-31.64c-19.913-19.725-30.878-46.335-30.878-74.929
	C235.797,192.156,246.761,165.545,267.436,145.056z"/>
</svg>
