<?xml version="1.0" encoding="utf-8"?>
<!-- Generator: Adobe Illustrator 18.1.0, SVG Export Plug-In . SVG Version: 6.00 Build 0)  -->
<svg version="1.1" id="Слой_1" xmlns="http://www.w3.org/2000/svg" xmlns:xlink="http://www.w3.org/1999/xlink" x="0px" y="0px"
	 viewBox="0 0 841.89 595.28" enable-background="new 0 0 841.89 595.28" xml:space="preserve">
<g>
	
		<linearGradient id="SVGID_1_" gradientUnits="userSpaceOnUse" x1="249.0243" y1="123.7575" x2="338.692" y2="123.7575" gradientTransform="matrix(1.05 0 0 -1.05 123.305 625.0477)">
		<stop  offset="0" style="stop-color:#D0090F"/>
		<stop  offset="1" style="stop-color:#E58618"/>
	</linearGradient>
	<path fill="url(#SVGID_1_)" d="M431.856,542.176c2.013,0,4.058-0.126,6.122-0.386c20.981-2.644,37.924-19.587,40.57-40.569
		c3.619-28.729-18.679-53.195-46.692-53.194c-2.011,0-4.056,0.125-6.118,0.386c-20.981,2.643-37.925,19.586-40.568,40.567
		C381.545,517.712,403.843,542.176,431.856,542.176z M404.418,491.408c1.539-12.219,11.526-22.206,23.746-23.745
		c1.232-0.156,2.474-0.234,3.694-0.234c7.938,0,15.508,3.419,20.766,9.382c5.33,6.041,7.698,13.851,6.672,21.986
		c-1.539,12.219-11.526,22.207-23.744,23.747c-1.235,0.155-2.477,0.234-3.696,0.234c-7.941,0-15.51-3.42-20.768-9.383
		C405.762,507.352,403.391,499.544,404.418,491.408z"/>
	
		<linearGradient id="SVGID_2_" gradientUnits="userSpaceOnUse" x1="247.2352" y1="446.6975" x2="263.7512" y2="446.6975" gradientTransform="matrix(1.05 0 0 -1.05 123.305 625.0477)">
		<stop  offset="0" style="stop-color:#D0090F"/>
		<stop  offset="1" style="stop-color:#E58618"/>
	</linearGradient>
	<circle fill="url(#SVGID_2_)" cx="391.574" cy="156.013" r="8.671"/>
	
		<linearGradient id="SVGID_3_" gradientUnits="userSpaceOnUse" x1="313.7772" y1="446.6975" x2="330.2952" y2="446.6975" gradientTransform="matrix(1.05 0 0 -1.05 123.305 625.0477)">
		<stop  offset="0" style="stop-color:#D0090F"/>
		<stop  offset="1" style="stop-color:#E58618"/>
	</linearGradient>
	<circle fill="url(#SVGID_3_)" cx="461.445" cy="156.013" r="8.672"/>
	
		<linearGradient id="SVGID_4_" gradientUnits="userSpaceOnUse" x1="262.5045" y1="389.1096" x2="316.5793" y2="389.1096" gradientTransform="matrix(1.05 0 0 -1.05 123.305 625.0477)">
		<stop  offset="0" style="stop-color:#D0090F"/>
		<stop  offset="1" style="stop-color:#E58618"/>
	</linearGradient>
	<path fill="url(#SVGID_4_)" d="M401.657,218.12c8.043,3.942,16.79,5.924,25.546,5.924c7.611,0,15.225-1.495,22.4-4.495l3.131-1.307
		c2.47-1.032,3.639-3.872,2.606-6.344c-1.034-2.474-3.88-3.636-6.347-2.608l-3.131,1.31c-12.863,5.379-27.43,4.94-39.942-1.189
		c-2.408-1.179-5.308-0.18-6.488,2.222C398.255,214.038,399.249,216.943,401.657,218.12z"/>
	
		<linearGradient id="SVGID_5_" gradientUnits="userSpaceOnUse" x1="225.6545" y1="476.2964" x2="260.248" y2="476.2964" gradientTransform="matrix(1.05 0 0 -1.05 123.305 625.0477)">
		<stop  offset="0" style="stop-color:#D0090F"/>
		<stop  offset="1" style="stop-color:#E58618"/>
	</linearGradient>
	<path fill="url(#SVGID_5_)" d="M365.092,134.866c1.195,0,2.393-0.438,3.327-1.321l1.492-1.407
		c5.725-5.397,13.492-8.059,21.341-7.315c2.752,0.248,5.038-1.701,5.291-4.367c0.258-2.666-1.696-5.035-4.364-5.291
		c-10.646-1.002-21.168,2.602-28.92,9.915l-1.492,1.407c-1.951,1.838-2.04,4.908-0.204,6.857
		C362.519,134.356,363.803,134.866,365.092,134.866z"/>
	
		<linearGradient id="SVGID_6_" gradientUnits="userSpaceOnUse" x1="315.6631" y1="476.2682" x2="349.5806" y2="476.2682" gradientTransform="matrix(1.05 0 0 -1.05 123.305 625.0477)">
		<stop  offset="0" style="stop-color:#D0090F"/>
		<stop  offset="1" style="stop-color:#E58618"/>
	</linearGradient>
	<path fill="url(#SVGID_6_)" d="M459.459,123.942l2.051,0.062c7.869,0.232,15.252,3.846,20.265,9.918
		c0.96,1.16,2.35,1.762,3.743,1.762c1.086,0,2.179-0.364,3.084-1.111c2.067-1.704,2.36-4.76,0.654-6.828
		c-6.794-8.227-16.799-13.125-27.458-13.437l-2.045-0.061c-2.563-0.13-4.919,2.022-4.998,4.701
		C454.677,121.627,456.784,123.861,459.459,123.942z"/>
	
		<linearGradient id="SVGID_7_" gradientUnits="userSpaceOnUse" x1="98.3037" y1="311.815" x2="468.6262" y2="311.815" gradientTransform="matrix(1.05 0 0 -1.05 123.305 625.0477)">
		<stop  offset="0" style="stop-color:#D0090F"/>
		<stop  offset="1" style="stop-color:#E58618"/>
	</linearGradient>
	<path fill="url(#SVGID_7_)" d="M506.782,315.279c-6.92-0.289-14.07-0.585-21.4-1.131v-42.166
		c12.339-13.546,19.092-31.165,19.092-49.995c0.122-1.743,2.038-7.526,3.188-9.966c2.898-3.464,3.972-8.938,5.244-18.084
		c2.695-19.468,6.984-37.82,12.746-54.554c3.86-10.899,5.834-22.494,5.834-34.379c0-10.847-1.758-21.509-5.375-32.598
		c-0.558-1.709-1.557-3.24-2.901-4.435c-3.213-2.862-7.408-5.71-12.007-8.435c0.743-0.591,1.413-1.294,1.978-2.097
		c2.417-3.43,2.477-7.992,0.149-11.483C496.992,21.446,470.722,4.74,441.257,0.123c-0.521-0.082-1.046-0.123-1.572-0.123
		c-0.754,0-1.505,0.083-2.244,0.25c-6.22,1.408-14.838,4.515-22.48,7.275c-0.521-1.268-1.297-2.437-2.308-3.423
		c-1.916-1.869-4.47-2.884-7.091-2.884c-0.714,0-1.433,0.075-2.144,0.228c-48.655,10.51-83.969,53.976-83.969,103.352
		c0,12.013,1.974,23.677,5.863,34.666c6.064,17.602,10.348,35.919,12.704,54.36c1.441,10.396,2.588,15.368,5.366,18.508
		c1.044,2.179,2.789,7.783,2.878,9.72c0,18.52,6.785,36.153,19.185,49.976l-1.346,42.734c-10.604,2.254-38.458,2.457-49.741,2.539
		c-8.823,0.064-13.549,0.111-16.16,0.407c-72.336,7.965-71.989,65.927-71.622,127.289l0.06,15.018v38.791
		c0,13.439,10.934,24.372,24.373,24.372h45.29v31.276c0,22.51,18.314,40.823,40.823,40.823h189.489
		c22.509,0,40.823-18.313,40.823-40.823V523.18h23.56c13.437,0,24.371-10.934,24.371-24.372v-38.791
		C615.365,329.25,574.344,318.1,506.782,315.279z M352.756,128.471c-2.459-7.567-3.736-15.499-3.736-23.523
		c0.091-29.356,17.322-55.796,43.032-68.47c3.375,2.827,7.841,4.559,12.582,4.559c4.832,0,9.116-1.55,19.42-5.288
		c5.016-1.914,11.672-4.285,16.32-5.652c4.468,0.912,8.843,2.188,12.944,3.829l-1.822,13.767
		c-2.006,14.678,9.211,19.876,20.149,24.981c6.929,3.191,20.149,9.3,27.99,14.405c1.457,5.926,2.187,11.944,2.187,17.869
		c0,8.479-1.366,16.777-4.1,24.798c-6.565,18.965-11.305,39.205-14.132,60.265c-0.548,3.555-0.912,5.562-1.096,6.656
		c-5.013,8.297-7.473,20.514-7.473,25.346c0,11.944-4.652,23.249-13.041,31.818l-2.281,2.28l-7.564,3.282
		c-16.961,7.385-36.377,7.385-53.335,0l-7.661-3.282l-2.187-2.28c-8.39-8.569-13.038-19.875-13.038-31.818
		c0-4.832-2.552-17.05-7.475-25.346c-0.273-1.185-0.729-3.465-1.185-7.566C364.793,170.502,360.233,151.174,352.756,128.471z
		 M465.811,338.258l-2.861,7.805c-2.164,17.888-17.223,16.299-35.239,16.533c-0.315,0.004-0.632,0.007-0.949,0.013
		c-18.108,0.239-33.578,2.137-36.128-15.793l-3.778-10.748c4.195-3.647,6.473-8.661,6.565-15.409l1.552-51.238l0.089-1.094
		c9.664,4.195,20.057,6.291,30.361,6.291c10.393,0,20.786-2.096,30.45-6.291v49.781C455.872,326.313,459.7,333.607,465.811,338.258z
		 M537.378,557.434c-0.637,2.188-1.914,4.103-3.555,5.562H329.964c-1.916-1.551-3.191-3.647-3.736-6.109V430.979
		c0-0.911,0.729-1.64,1.639-1.64h52.424c4.011,0,7.75-2.28,9.575-5.926l9.481-19.056c0.184-0.274,0.548-0.547,0.912-0.547h63.092
		c0.364,0,0.729,0.273,0.912,0.547l9.48,19.056c1.825,3.647,5.472,5.926,9.48,5.926h52.515c0.912,0,1.641,0.729,1.641,1.64v126.455
		H537.378z"/>
</g>
</svg>
