<?xml version="1.0" encoding="utf-8"?>
<!-- Generator: Adobe Illustrator 18.1.0, SVG Export Plug-In . SVG Version: 6.00 Build 0)  -->
<svg version="1.1" id="Слой_1" xmlns="http://www.w3.org/2000/svg" xmlns:xlink="http://www.w3.org/1999/xlink" x="0px" y="0px"
	 viewBox="0 0 369.901 566.929" enable-background="new 0 0 369.901 566.929" xml:space="preserve">
<g>
	<linearGradient id="SVGID_1_" gradientUnits="userSpaceOnUse" x1="150.5494" y1="471.6298" x2="240.1149" y2="471.6298">
		<stop  offset="0.0722" style="stop-color:#E20413"/>
		<stop  offset="0.2456" style="stop-color:#E20913"/>
		<stop  offset="0.4442" style="stop-color:#E31713"/>
		<stop  offset="0.6552" style="stop-color:#E52E13"/>
		<stop  offset="0.8735" style="stop-color:#E84D13"/>
		<stop  offset="0.9072" style="stop-color:#E85313"/>
	</linearGradient>
	<path fill="url(#SVGID_1_)" d="M195.33,516.412c1.915,0,3.861-0.12,5.823-0.368c19.96-2.515,36.078-18.633,38.594-38.593
		c3.443-27.33-17.769-50.605-44.417-50.603c-1.913,0-3.858,0.119-5.821,0.368c-19.96,2.514-36.078,18.632-38.592,38.592
		C147.47,493.138,168.682,516.412,195.33,516.412z M169.229,468.115c1.465-11.624,10.965-21.124,22.589-22.588
		c1.172-0.149,2.354-0.223,3.514-0.223c7.552,0,14.752,3.252,19.755,8.924c5.071,5.746,7.323,13.176,6.347,20.915
		c-1.465,11.624-10.965,21.125-22.587,22.591c-1.175,0.147-2.356,0.223-3.516,0.223c-7.554,0-14.755-3.254-19.757-8.926
		C170.507,483.284,168.253,475.856,169.229,468.115z"/>
	<linearGradient id="SVGID_2_" gradientUnits="userSpaceOnUse" x1="148.7622" y1="149.0557" x2="165.2597" y2="149.0557">
		<stop  offset="0.0722" style="stop-color:#E20413"/>
		<stop  offset="0.2456" style="stop-color:#E20913"/>
		<stop  offset="0.4442" style="stop-color:#E31713"/>
		<stop  offset="0.6552" style="stop-color:#E52E13"/>
		<stop  offset="0.8735" style="stop-color:#E84D13"/>
		<stop  offset="0.9072" style="stop-color:#E85313"/>
	</linearGradient>
	<circle fill="url(#SVGID_2_)" cx="157.011" cy="149.056" r="8.249"/>
	<linearGradient id="SVGID_3_" gradientUnits="userSpaceOnUse" x1="215.2287" y1="149.0557" x2="231.7285" y2="149.0557">
		<stop  offset="0.0722" style="stop-color:#E20413"/>
		<stop  offset="0.2456" style="stop-color:#E20913"/>
		<stop  offset="0.4442" style="stop-color:#E31713"/>
		<stop  offset="0.6552" style="stop-color:#E52E13"/>
		<stop  offset="0.8735" style="stop-color:#E84D13"/>
		<stop  offset="0.9072" style="stop-color:#E85313"/>
	</linearGradient>
	<circle fill="url(#SVGID_3_)" cx="223.479" cy="149.056" r="8.249"/>
	<linearGradient id="SVGID_4_" gradientUnits="userSpaceOnUse" x1="164.0142" y1="206.5778" x2="218.0277" y2="206.5778">
		<stop  offset="0.0722" style="stop-color:#E20413"/>
		<stop  offset="0.2456" style="stop-color:#E20913"/>
		<stop  offset="0.4442" style="stop-color:#E31713"/>
		<stop  offset="0.6552" style="stop-color:#E52E13"/>
		<stop  offset="0.8735" style="stop-color:#E84D13"/>
		<stop  offset="0.9072" style="stop-color:#E85313"/>
	</linearGradient>
	<path fill="url(#SVGID_4_)" d="M166.602,208.138c7.651,3.75,15.972,5.636,24.302,5.636c7.241,0,14.483-1.422,21.309-4.276
		l2.979-1.244c2.349-0.982,3.462-3.684,2.479-6.035c-0.983-2.354-3.691-3.459-6.038-2.481l-2.979,1.246
		c-12.236,5.117-26.094,4.699-37.997-1.131c-2.29-1.121-5.049-0.171-6.172,2.113C163.366,204.255,164.312,207.019,166.602,208.138z"
		/>
	<linearGradient id="SVGID_5_" gradientUnits="userSpaceOnUse" x1="127.2061" y1="119.4906" x2="161.7603" y2="119.4906">
		<stop  offset="0.0722" style="stop-color:#E20413"/>
		<stop  offset="0.2456" style="stop-color:#E20913"/>
		<stop  offset="0.4442" style="stop-color:#E31713"/>
		<stop  offset="0.6552" style="stop-color:#E52E13"/>
		<stop  offset="0.8735" style="stop-color:#E84D13"/>
		<stop  offset="0.9072" style="stop-color:#E85313"/>
	</linearGradient>
	<path fill="url(#SVGID_5_)" d="M131.819,128.94c1.137,0,2.276-0.416,3.165-1.257l1.42-1.338c5.446-5.134,12.835-7.666,20.302-6.959
		c2.618,0.236,4.792-1.618,5.033-4.154c0.245-2.537-1.613-4.79-4.151-5.033c-10.127-0.953-20.137,2.475-27.512,9.433l-1.42,1.338
		c-1.856,1.748-1.941,4.669-0.193,6.522C129.371,128.454,130.593,128.94,131.819,128.94z"/>
	<linearGradient id="SVGID_6_" gradientUnits="userSpaceOnUse" x1="217.1134" y1="119.5179" x2="250.9919" y2="119.5179">
		<stop  offset="0.0722" style="stop-color:#E20413"/>
		<stop  offset="0.2456" style="stop-color:#E20913"/>
		<stop  offset="0.4442" style="stop-color:#E31713"/>
		<stop  offset="0.6552" style="stop-color:#E52E13"/>
		<stop  offset="0.8735" style="stop-color:#E84D13"/>
		<stop  offset="0.9072" style="stop-color:#E85313"/>
	</linearGradient>
	<path fill="url(#SVGID_6_)" d="M221.589,118.547l1.95,0.059c7.486,0.221,14.509,3.659,19.278,9.435
		c0.913,1.104,2.236,1.676,3.561,1.676c1.033,0,2.073-0.347,2.934-1.057c1.967-1.621,2.245-4.528,0.623-6.495
		c-6.462-7.827-15.981-12.486-26.12-12.783l-1.946-0.058c-2.439-0.124-4.679,1.923-4.755,4.472
		C217.04,116.344,219.045,118.47,221.589,118.547z"/>
	<linearGradient id="SVGID_7_" gradientUnits="userSpaceOnUse" x1="-5.592826e-004" y1="283.7858" x2="369.902" y2="283.7858">
		<stop  offset="0.0722" style="stop-color:#E20413"/>
		<stop  offset="0.2456" style="stop-color:#E20913"/>
		<stop  offset="0.4442" style="stop-color:#E31713"/>
		<stop  offset="0.6552" style="stop-color:#E52E13"/>
		<stop  offset="0.8735" style="stop-color:#E84D13"/>
		<stop  offset="0.9072" style="stop-color:#E85313"/>
	</linearGradient>
	<path fill="url(#SVGID_7_)" d="M266.608,300.565c-6.582-0.275-13.384-0.557-20.358-1.076v-40.113
		c11.738-12.887,18.163-29.647,18.163-47.56c0.116-1.658,1.939-7.16,3.033-9.48c2.757-3.295,3.778-8.502,4.988-17.204
		c2.564-18.52,6.644-35.978,12.125-51.897c3.672-10.368,5.549-21.399,5.549-32.705c0-10.318-1.672-20.462-5.113-31.01
		c-0.531-1.626-1.481-3.083-2.759-4.219c-3.056-2.723-7.047-5.432-11.422-8.024c0.708-0.562,1.344-1.231,1.882-1.995
		c2.3-3.263,2.356-7.603,0.142-10.923c-15.542-23.316-40.533-39.207-68.563-43.6c-0.495-0.078-0.995-0.117-1.495-0.117
		c-0.717,0-1.432,0.079-2.134,0.238c-5.917,1.34-14.115,4.295-21.384,6.921c-0.495-1.206-1.233-2.318-2.196-3.256
		c-1.823-1.778-4.252-2.744-6.745-2.744c-0.679,0-1.363,0.071-2.04,0.217C121.994,12.016,88.4,53.365,88.4,100.337
		c0,11.428,1.877,22.523,5.578,32.977c5.769,16.745,9.844,34.17,12.085,51.712c1.37,9.89,2.462,14.619,5.104,17.607
		c0.993,2.073,2.653,7.403,2.738,9.246c0,17.618,6.455,34.392,18.25,47.542l-1.281,40.653c-10.087,2.145-36.585,2.337-47.318,2.415
		c-8.394,0.061-12.889,0.106-15.372,0.388C-0.63,310.456-0.3,365.593,0.049,423.968l0.057,14.286v36.902
		c0,12.784,10.401,23.185,23.186,23.185h43.085v29.753c0,21.414,17.422,38.835,38.835,38.835h180.26
		c21.413,0,38.835-17.421,38.835-38.835v-29.753h22.412c12.783,0,23.184-10.401,23.184-23.185v-36.902
		C369.902,313.856,330.879,303.248,266.608,300.565z M227.632,322.425l-2.722,7.424c-2.059,17.016-16.384,15.506-33.523,15.729
		c-0.3,0.004-0.601,0.007-0.903,0.012c-17.226,0.228-31.943,2.033-34.368-15.023l-3.594-10.224
		c3.991-3.469,6.158-8.239,6.245-14.658l1.476-48.743l0.085-1.041c9.193,3.991,19.08,5.985,28.882,5.985
		c9.887,0,19.773-1.994,28.967-5.985v47.356C218.177,311.062,221.818,318.001,227.632,322.425z M120.083,122.856
		c-2.34-7.199-3.554-14.744-3.554-22.377c0.087-27.927,16.479-53.079,40.936-65.135c3.21,2.689,7.46,4.337,11.969,4.337
		c4.597,0,8.672-1.474,18.474-5.031c4.771-1.821,11.104-4.077,15.526-5.377c4.25,0.868,8.413,2.081,12.314,3.643l-1.733,13.097
		c-1.908,13.963,8.762,18.908,19.167,23.764c6.592,3.035,19.167,8.847,26.627,13.704c1.387,5.638,2.08,11.362,2.08,16.999
		c0,8.066-1.299,15.96-3.901,23.591c-6.245,18.041-10.755,37.296-13.443,57.33c-0.521,3.382-0.868,5.291-1.042,6.331
		c-4.769,7.893-7.108,19.515-7.108,24.112c0,11.362-4.424,22.117-12.406,30.269l-2.17,2.169l-7.196,3.123
		c-16.134,7.025-34.606,7.025-50.738,0l-7.288-3.123l-2.08-2.169c-7.981-8.152-12.403-18.907-12.403-30.269
		c0-4.597-2.427-16.219-7.111-24.112c-0.259-1.127-0.693-3.296-1.127-7.198C131.534,162.839,127.196,144.452,120.083,122.856z
		 M295.714,530.926c-0.606,2.081-1.821,3.903-3.382,5.291H98.402c-1.823-1.475-3.035-3.469-3.554-5.811V410.63
		c0-0.867,0.693-1.56,1.559-1.56h49.87c3.816,0,7.373-2.169,9.108-5.638l9.019-18.127c0.175-0.261,0.521-0.52,0.868-0.52h60.018
		c0.347,0,0.693,0.259,0.868,0.52l9.019,18.127c1.736,3.469,5.205,5.638,9.019,5.638h49.957c0.868,0,1.561,0.693,1.561,1.56V530.926
		z"/>
</g>
</svg>
