<?xml version="1.0" encoding="utf-8"?>
<!-- Generator: Adobe Illustrator 18.1.0, SVG Export Plug-In . SVG Version: 6.00 Build 0)  -->
<svg version="1.1" id="Слой_1" xmlns="http://www.w3.org/2000/svg" xmlns:xlink="http://www.w3.org/1999/xlink" x="0px" y="0px"
	 viewBox="0 0 841.89 595.28" enable-background="new 0 0 841.89 595.28" xml:space="preserve">
<linearGradient id="SVGID_1_" gradientUnits="userSpaceOnUse" x1="168.2288" y1="160.7942" x2="377.5811" y2="523.4032" gradientTransform="matrix(1.05 0 0 -1.05 123.305 625.0477)">
	<stop  offset="0" style="stop-color:#D0090F"/>
	<stop  offset="1" style="stop-color:#E58618"/>
</linearGradient>
<path fill="url(#SVGID_1_)" d="M618.55,246.556c0-54.501-22.028-103.942-57.928-139.677
	c-35.734-35.734-85.176-57.927-139.676-57.927S317.005,71.144,281.27,106.879c-35.898,35.735-57.928,85.178-57.928,139.677
	c0,54.662,22.03,104.104,57.928,139.839c0,0,0,0,0,0.164l139.676,139.513l20.467-20.468c1.861-11.414,3.304-23.87,2.902-35.226h3.28
	c0,0,3.275-35.473-2.725-64.947c0.546-0.545,3.619,0,3.619,0s-0.888-31.113-10.714-59.49h2.932c0,0-5.872-40.743-25.253-73.606
	c-1.639,8.512-3.318,22.072-1.703,37.587c0,0-8.731,0.01-14.192-10.359c-0.544,1.085-13.095,39.343,13.097,71.246
	c-1.09-0.311-78.044-40.689-33.837-117.641c0.544-0.546-21.283,3.83-26.191,33.832c-0.551,0-6.007-1.078-10.374-10.359
	c0,1.078-28.926,19.647-3.82,77.491c0,1.107-40.387-20.185-25.106-92.784c0,0-12.007,9.281-19.098,32.204
	c-0.55,0.55-10.868-79.394,93.347-80.217c-4.486-1.638-36.87-19.247-85.16,7.642c0-0.562,18.154-38.215,53.278-38.215
	c-0.342-0.545-10.164-17.451-39.632-4.916c0.544-0.545,28.379-33.827,76.408,9.281c-0.544,0.546,1.504-60.57,48.231-58.93
	c0,0-23.673,4.366-26.949,30.564c0.551-1.09,21.833-22.923,66.586-9.826c0-0.546-53.485,12.011-69.311,55.125
	c0-0.545,62.765-70.402,126.621-9.82c-0.55-0.546-18.556-7.107-38.752-9.281c0-0.546,56.209,32.187,48.573,85.142
	c0.544,0-20.196-55.125-57.304-52.94c-0.546,0.545,2.179,4.349,1.09,15.277c-1.09,1.095-16.917-18.007-45.301-7.096
	c0,1.1,77.5,15.287,57.852,105.886c-0.546,0.545-4.366-43.658-39.293-58.395c0.55,1.635,1.635,7.641-2.185,17.462
	c-0.504,0-14.491-16.721-31.232-27.447c6.724,16.335,22.341,55.86,27.422,82.561c-0.544,1.073,2.731-0.567,2.731-0.567
	s7.095,28.928,6.549,60.586c-0.544,0.555,3.277-1.085,3.277-1.085s1.09,32.753-2.725,65.496c-1.09,0.54,2.872,0.54,2.872,0.54
	s-0.126,2.148-0.52,5.938l89.92-89.922C596.522,350.66,618.55,301.218,618.55,246.556z"/>
<linearGradient id="SVGID_2_" gradientUnits="userSpaceOnUse" x1="279.3669" y1="595.2451" x2="289.2603" y2="28.4508" gradientTransform="matrix(1.05 0 0 -1.05 123.305 625.0477)">
	<stop  offset="0.6882" style="stop-color:#FFFFFF"/>
	<stop  offset="0.7541" style="stop-color:#FCFCFC"/>
	<stop  offset="0.8296" style="stop-color:#F1F1F1"/>
	<stop  offset="0.9098" style="stop-color:#E0E0E0"/>
	<stop  offset="0.9928" style="stop-color:#C7C7C7"/>
	<stop  offset="1" style="stop-color:#C5C5C5"/>
</linearGradient>
<path fill="url(#SVGID_2_)" d="M595.156,72.184C548.633,25.663,486.738,0,420.947,0c-65.796,0-127.69,25.663-174.293,72.264
	c-46.57,46.363-72.265,108.289-72.265,174.293c0,58.946,20.429,114.615,57.928,158.907v1.225l14.358,14.505l139.677,139.513
	l34.615,34.574l34.595-34.595l139.674-139.677C641.81,374.65,667.5,312.666,667.5,246.556
	C667.5,180.55,641.809,118.623,595.156,72.184z M560.621,386.395l-89.918,89.92c0.395-3.786,0.52-5.937,0.52-5.937
	s-3.962,0-2.872-0.54c3.815-32.743,2.725-65.496,2.725-65.496s-3.82,1.64-3.277,1.085c0.546-31.659-6.549-60.586-6.549-60.586
	s-3.275,1.64-2.731,0.567c-5.081-26.701-20.698-66.226-27.422-82.561c16.741,10.725,30.728,27.447,31.232,27.447
	c3.82-9.821,2.735-15.827,2.185-17.462c34.927,14.737,38.747,58.94,39.293,58.395c19.648-90.599-57.852-104.785-57.852-105.886
	c28.384-10.911,44.212,8.191,45.301,7.096c1.09-10.927-1.635-14.732-1.09-15.277c37.108-2.185,57.848,52.94,57.304,52.94
	c7.635-52.956-48.573-85.688-48.573-85.142c20.196,2.175,38.202,8.735,38.752,9.281c-63.855-60.581-126.621,9.275-126.621,9.82
	c15.826-43.114,69.311-55.67,69.311-55.125c-44.753-13.097-66.034,8.736-66.586,9.826c3.277-26.197,26.949-30.564,26.949-30.564
	c-46.727-1.64-48.775,59.476-48.231,58.93c-48.029-43.108-75.864-9.826-76.408-9.281c29.467-12.535,39.289,4.371,39.633,4.916
	c-35.125,0-53.278,37.653-53.278,38.215c48.291-26.889,80.674-9.28,85.16-7.642c-104.214,0.823-93.897,80.768-93.347,80.217
	c7.091-22.923,19.098-32.204,19.098-32.204c-15.282,72.599,25.106,93.891,25.106,92.784c-25.106-57.845,3.82-76.413,3.82-77.491
	c4.366,9.281,9.822,10.359,10.374,10.359c4.908-30.002,26.735-34.377,26.191-33.832c-44.205,76.952,32.749,117.33,33.837,117.641
	c-26.191-31.903-13.641-70.161-13.097-71.246c5.462,10.371,14.192,10.359,14.192,10.359c-1.615-15.516,0.064-29.076,1.703-37.587
	c19.381,32.863,25.253,73.606,25.253,73.606h-2.932c9.826,28.377,10.714,59.49,10.714,59.49s-3.073-0.545-3.619,0
	c6,29.474,2.725,64.947,2.725,64.947h-3.28c0.402,11.356-1.042,23.812-2.902,35.226l-20.467,20.468L281.269,386.559
	c0-0.164,0-0.164,0-0.164c-35.898-35.735-57.928-85.177-57.928-139.839c0-54.501,22.03-103.942,57.928-139.677
	c35.734-35.734,85.177-57.927,139.677-57.927c54.497,0,103.939,22.192,139.674,57.927c35.902,35.735,57.928,85.178,57.928,139.677
	C618.548,301.218,596.522,350.66,560.621,386.395z"/>
</svg>
