<?xml version="1.0" encoding="utf-8"?>
<!-- Generator: Adobe Illustrator 18.1.0, SVG Export Plug-In . SVG Version: 6.00 Build 0)  -->
<svg version="1.1" id="Слой_1" xmlns="http://www.w3.org/2000/svg" xmlns:xlink="http://www.w3.org/1999/xlink" x="0px" y="0px"
	 viewBox="0 0 841.89 595.28" enable-background="new 0 0 841.89 595.28" xml:space="preserve">
<linearGradient id="SVGID_1_" gradientUnits="userSpaceOnUse" x1="168.2009" y1="160.8097" x2="377.5532" y2="523.4187" gradientTransform="matrix(1.05 0 0 -1.05 123.305 625.0477)">
	<stop  offset="0" style="stop-color:#D0090F"/>
	<stop  offset="1" style="stop-color:#E58618"/>
</linearGradient>
<path fill="url(#SVGID_1_)" d="M306.4,367.215c1.808-4.673,0.151-9.975-3.995-12.787l-10.907-7.391l10.543-17.3
	c5.898-9.679,9.815-20.432,11.527-31.638l2.924-19.155c1.243-8.142,4.841-15.743,10.35-21.864l3.546-3.939
	c4.958-5.507,12.537-7.851,19.737-6.102c2.93-10.182,10.221-18.507,19.745-22.876h-15.106c0,0,0-6.308,0-7.421
	c0-1.113,14.098-12.617,14.098-12.617s5.234-24.541,8.398-39.764c-0.384-2.014-0.606-4.099-0.606-6.249
	c0-1.829,0.164-3.612,0.444-5.346c1.635-10.062,7.786-18.233,15.905-21.577v-6.846c-5.005-0.589-7.035-6.493-7.035-11.255
	c0-2.781,3.952-16.572,13.122-16.572c5.685,0,10.294,4.783,10.294,10.683c0,1.796-0.468,3.462-1.223,4.947
	c0.029,0.316-0.382,6.425-0.382,6.748c0,2.393-0.813,3.297-2.151,3.674v7.471c11.381,2.46,20.008,14.081,20.008,28.073
	c0,2.494-0.3,4.899-0.815,7.204l3.414,3.927l3.406,1.066c1.255,0.392,2.529-0.546,2.529-1.86v-6.256l-4.083-14.97l10.936-18.316
	c2.008-3.365,5.394-5.676,9.262-6.321l4.295-0.716l6.266-7.694c0.273-0.337,0.819-0.155,0.837,0.278l0.319,7.416l6.295-7.342
	c0.313-0.364,0.906-0.083,0.822,0.391l-1.552,8.684l4.825,5.937l10.252,10.18c4.94,4.905,11.161,8.321,17.949,9.859
	c0,0,1.856,10.019,1.856,11.132c0,1.112-3.338,5.937-3.338,5.937l-8.907,1.484l-5.194-6.308l-10.39-3.71l-3.711,1.854
	c0,0,10.39,19.296,10.763,20.41c0.371,1.113,1.484,10.762,1.484,10.762l12.986,14.471l-0.373,23.007l13.732,2.226l16.326,7.421
	l6.681,15.585l1.112,21.78l-7.049,13.842l-2.64,1.141c-4.999,2.161-10.49-1.813-9.997-7.238l0.391-4.295l0.243-0.055
	c4.754-1.082,8.324-5.025,8.929-9.865l0.524-4.195c0.446-3.568-0.482-7.17-2.596-10.078l-5.159-7.089
	c-2.143-2.948-5.605-4.644-9.251-4.53l-17.923,0.56c0,0,4.452,10.762,3.709,13.172c-0.448,1.457,7.625,4.603,14.094,6.869
	c1.803,0.631,1.501,3.266-0.4,3.468l-13.758,1.468c-3.137,0.335-5.872-2.125-5.872-5.282v-6.524l-7.051-10.203l-19.668,12.616
	l7.668,5.236c2.349,1.603,1.251,5.277-1.592,5.332l-8.487,0.167c-0.817,0.016-1.586-0.365-2.067-1.023l-3.315-4.517l-7.421,6.307
	l-25.472-2.256c-0.46,1.344-1.004,2.646-1.614,3.914l5.936,11.331l-22.636,18.554l-11.503,8.535l-1.484,8.534l19.666,17.811
	l9.131,1.246c2.789,0.38,5.197,2.143,6.4,4.686l4.135,8.727l50.191-5.732c6.595-0.754,13.254-0.772,19.855-0.055l88.117,9.571
	c20.791-31.281,32.896-68.804,32.896-109.224c0-54.501-22.028-103.942-57.928-139.677c-35.734-35.734-85.176-57.927-139.676-57.927
	s-103.941,22.192-139.676,57.927c-35.898,35.735-57.928,85.178-57.928,139.677c0,54.662,22.03,104.104,57.928,139.839
	c0,0,0,0,0,0.164l7.237,7.227l12.08-11.549L306.4,367.215z"/>
<linearGradient id="SVGID_2_" gradientUnits="userSpaceOnUse" x1="149.4733" y1="171.6221" x2="358.8257" y2="534.2311" gradientTransform="matrix(1.05 0 0 -1.05 123.305 625.0477)">
	<stop  offset="0.0722" style="stop-color:#C20B19"/>
	<stop  offset="0.2821" style="stop-color:#C31A1A"/>
	<stop  offset="0.5225" style="stop-color:#C52E1B"/>
	<stop  offset="0.7769" style="stop-color:#C9451D"/>
	<stop  offset="0.9072" style="stop-color:#CC541F"/>
</linearGradient>
<path fill="url(#SVGID_2_)" d="M327.661,353.277c-3.892,0.854-7.281,3.209-9.428,6.566c-4.419,6.911-11.674,18.269-11.927,18.774
	l29.829-9.458l-0.737-10.109C335.115,355.171,331.462,352.444,327.661,353.277z"/>
<linearGradient id="SVGID_3_" gradientUnits="userSpaceOnUse" x1="152.0589" y1="170.1293" x2="361.4113" y2="532.7382" gradientTransform="matrix(1.05 0 0 -1.05 123.305 625.0477)">
	<stop  offset="0.0722" style="stop-color:#C20B19"/>
	<stop  offset="0.2821" style="stop-color:#C31A1A"/>
	<stop  offset="0.5225" style="stop-color:#C52E1B"/>
	<stop  offset="0.7769" style="stop-color:#C9451D"/>
	<stop  offset="0.9072" style="stop-color:#CC541F"/>
</linearGradient>
<path fill="url(#SVGID_3_)" d="M371.386,340.991l20.851-1.055l-22.634-22.264l0.371-11.503l6.46-5.412
	c3.513-2.944,3-8.493-0.996-10.742l-8.766-4.932c-8.134-4.574-14.242-12.051-17.105-20.935l-2.6-8.075l-8.711,12.041
	c-2.554,3.531-4.09,7.696-4.438,12.04l-3.518,43.824l-10.792,24.119l11.103-2.176c4.541-0.891,9.08,1.559,10.828,5.848
	c0.706,1.732,0.986,3.61,0.817,5.474l-0.184,2.028c-0.102,1.117,1.248,1.75,2.041,0.957l12.817-12.815
	C360.79,343.555,365.941,341.268,371.386,340.991z"/>
<linearGradient id="SVGID_4_" gradientUnits="userSpaceOnUse" x1="183.3561" y1="152.0598" x2="392.7084" y2="514.6689" gradientTransform="matrix(1.05 0 0 -1.05 123.305 625.0477)">
	<stop  offset="0.0722" style="stop-color:#C20B19"/>
	<stop  offset="0.2821" style="stop-color:#C31A1A"/>
	<stop  offset="0.5225" style="stop-color:#C52E1B"/>
	<stop  offset="0.7769" style="stop-color:#C9451D"/>
	<stop  offset="0.9072" style="stop-color:#CC541F"/>
</linearGradient>
<path fill="url(#SVGID_4_)" d="M377.688,345.387c-4.497-0.027-8.822,1.706-12.058,4.828l-16.035,15.464l53.472-10.173
	c0,0-10.732-10.356-12.186-10.174C390.023,345.441,383.175,345.422,377.688,345.387z"/>
<linearGradient id="SVGID_5_" gradientUnits="userSpaceOnUse" x1="269.7021" y1="1148.933" x2="291.8148" y2="-117.9015" gradientTransform="matrix(1.05 0 0 -1.05 123.305 625.0477)">
	<stop  offset="0.6882" style="stop-color:#FFFFFF"/>
	<stop  offset="0.7541" style="stop-color:#FCFCFC"/>
	<stop  offset="0.8296" style="stop-color:#F1F1F1"/>
	<stop  offset="0.9098" style="stop-color:#E0E0E0"/>
	<stop  offset="0.9928" style="stop-color:#C7C7C7"/>
	<stop  offset="1" style="stop-color:#C5C5C5"/>
</linearGradient>
<path fill="url(#SVGID_5_)" d="M595.155,72.184C548.633,25.663,486.738,0,420.944,0S293.256,25.663,246.654,72.264
	c-46.572,46.363-72.265,108.289-72.265,174.293c0,58.946,20.429,114.614,57.928,158.907v1.225l14.358,14.505l139.676,139.513
	l34.615,34.574l34.595-34.595l139.676-139.677c46.572-46.359,72.265-108.343,72.265-174.452
	C667.5,180.55,641.807,118.623,595.155,72.184z M574.007,371.579c4.128-5.068,8.016-10.339,11.645-15.799l-88.116-9.571
	c-6.601-0.717-13.259-0.699-19.855,0.055l-50.191,5.732l-4.135-8.727c-1.203-2.543-3.611-4.305-6.4-4.686l-9.131-1.246
	l-19.666-17.811l1.484-8.534l11.503-8.535l22.636-18.554l-5.936-11.331c0.609-1.267,1.153-2.569,1.614-3.914l25.472,2.256
	l7.421-6.307l3.315,4.517c0.482,0.657,1.251,1.038,2.067,1.023l8.487-0.167c2.842-0.055,3.94-3.729,1.592-5.332l-7.668-5.236
	l19.668-12.616l7.051,10.203v6.524c0,3.156,2.735,5.616,5.872,5.282l13.758-1.468c1.903-0.203,2.203-2.836,0.4-3.468
	c-6.469-2.266-14.543-5.412-14.094-6.869c0.743-2.411-3.709-13.172-3.709-13.172l17.923-0.56c3.645-0.114,7.106,1.581,9.251,4.53
	l5.159,7.089c2.114,2.907,3.042,6.51,2.596,10.078l-0.524,4.195c-0.606,4.839-4.175,8.783-8.929,9.865l-0.243,0.055l-0.391,4.295
	c-0.492,5.424,4.998,9.399,9.997,7.238l2.64-1.141l7.05-13.842l-1.112-21.78l-6.681-15.585l-16.326-7.421l-13.732-2.226
	l0.373-23.007l-12.987-14.471c0,0-1.113-9.647-1.484-10.762c-0.373-1.113-10.763-20.41-10.763-20.41l3.711-1.854l10.39,3.71
	l5.194,6.308l8.907-1.484c0,0,3.338-4.825,3.338-5.937c0-1.113-1.856-11.132-1.856-11.132c-6.788-1.537-13.009-4.954-17.949-9.859
	l-10.252-10.18l-4.825-5.937l1.552-8.684c0.084-0.474-0.51-0.755-0.822-0.391l-6.295,7.342l-0.319-7.416
	c-0.018-0.434-0.564-0.614-0.837-0.278l-6.266,7.694l-4.295,0.716c-3.868,0.645-7.254,2.956-9.262,6.321l-10.936,18.316l4.083,14.97
	v6.256c0,1.314-1.275,2.251-2.529,1.86l-3.406-1.066l-3.414-3.927c0.513-2.306,0.815-4.71,0.815-7.204
	c0-13.992-8.627-25.614-20.008-28.073v-7.471c1.339-0.377,2.151-1.281,2.151-3.674c0-0.323,0.413-6.432,0.382-6.748
	c0.755-1.485,1.223-3.151,1.223-4.947c0-5.9-4.61-10.683-10.294-10.683c-9.171,0-13.122,13.791-13.122,16.572
	c0,4.762,2.03,10.666,7.035,11.255v6.846c-8.119,3.343-14.27,11.515-15.905,21.577c-0.28,1.733-0.444,3.515-0.444,5.346
	c0,2.149,0.222,4.235,0.606,6.249c-3.163,15.223-8.398,39.764-8.398,39.764s-14.098,11.503-14.098,12.617c0,1.114,0,7.421,0,7.421
	h15.106c-9.525,4.369-16.816,12.695-19.745,22.876c-7.201-1.749-14.78,0.594-19.737,6.102l-3.546,3.939
	c-5.509,6.122-9.107,13.723-10.35,21.864l-2.924,19.155c-1.712,11.206-5.629,21.959-11.527,31.638l-10.543,17.3l10.907,7.391
	c4.148,2.812,5.804,8.113,3.995,12.787l-5.814,15.022l-12.08,11.549l-7.237-7.227c0-0.164,0-0.164,0-0.164
	c-35.898-35.735-57.928-85.177-57.928-139.839c0-54.501,22.03-103.942,57.928-139.677c35.734-35.734,85.177-57.927,139.676-57.927
	s103.941,22.192,139.676,57.927c35.9,35.735,57.928,85.178,57.928,139.677C618.547,294.032,601.895,337.539,574.007,371.579z
	 M560.621,386.395c4.673-4.652,9.097-9.547,13.266-14.654C569.701,376.838,565.293,381.744,560.621,386.395z M341.441,351.77
	c-1.747-4.287-6.286-6.739-10.828-5.848l-11.103,2.176l10.792-24.119l3.518-43.824c0.349-4.345,1.885-8.509,4.438-12.04
	l8.711-12.041l2.6,8.075c2.862,8.884,8.969,16.36,17.105,20.935l8.767,4.932c3.995,2.248,4.51,7.797,0.996,10.742l-6.46,5.412
	l-0.371,11.503l22.634,22.264l-20.851,1.055c-5.445,0.277-10.597,2.564-14.453,6.422l-12.817,12.815
	c-0.793,0.793-2.143,0.161-2.041-0.957l0.184-2.028C342.427,355.38,342.147,353.502,341.441,351.77z M336.134,369.158l-29.829,9.458
	c0.253-0.505,7.508-11.864,11.927-18.774c2.147-3.357,5.536-5.713,9.428-6.566c3.8-0.833,7.454,1.894,7.736,5.773L336.134,369.158z
	 M365.63,350.215c3.237-3.123,7.561-4.855,12.058-4.828c5.485,0.035,12.333,0.054,13.192-0.054
	c1.454-0.183,12.186,10.174,12.186,10.174l-53.472,10.173L365.63,350.215z"/>
</svg>
