<?xml version="1.0" encoding="utf-8"?>
<!-- Generator: Adobe Illustrator 18.1.0, SVG Export Plug-In . SVG Version: 6.00 Build 0)  -->
<svg version="1.1" id="Слой_1" xmlns="http://www.w3.org/2000/svg" xmlns:xlink="http://www.w3.org/1999/xlink" x="0px" y="0px"
	 viewBox="0 0 841.89 595.28" enable-background="new 0 0 841.89 595.28" xml:space="preserve">
<linearGradient id="SVGID_1_" gradientUnits="userSpaceOnUse" x1="48.667" y1="311.815" x2="518.263" y2="311.815" gradientTransform="matrix(1.05 0 0 -1.05 123.305 625.0477)">
	<stop  offset="0" style="stop-color:#D0090F"/>
	<stop  offset="1" style="stop-color:#E58618"/>
</linearGradient>
<path fill="url(#SVGID_1_)" d="M595.211,72.273C550.628,27.689,488.941,0,420.943,0c-67.996,0-129.68,27.689-174.266,72.273
	c-44.79,44.585-72.271,106.27-72.271,174.267c0,68.2,27.481,129.887,72.271,174.471c0,0,0,0,0.204,0L420.943,595.28l174.268-174.267
	c44.787-44.585,72.273-106.271,72.273-174.471C667.484,178.543,639.999,116.858,595.211,72.273z M552.025,377.826L420.967,508.881
	l-106.894-107.02l51.229-51.235c16.551,8.911,35.508,13.992,55.64,13.992c32.575,0,62.094-13.233,83.471-34.609
	c21.579-21.376,34.608-50.896,34.608-83.469c0-32.574-13.03-62.094-34.608-83.47c-21.377-21.376-50.896-34.609-83.471-34.609
	c-32.57,0-62.091,13.233-83.266,34.609c-21.579,21.376-34.608,50.896-34.608,83.47c0,22.834,6.516,44.096,17.779,62.177
	l-48.59,48.593c-23.768-31.733-36.778-70.151-36.778-110.77c0-49.621,19.277-96.139,54.383-131.081
	c35.07-35.07,81.622-54.385,131.08-54.385c49.46,0,96.012,19.314,131.181,54.482c35.006,34.85,54.285,81.366,54.285,130.984
	C606.41,296.289,587.13,342.88,552.025,377.826z M364.144,246.54c0-15.296,5.865-29.529,16.924-40.489
	c10.549-10.65,24.71-16.516,39.874-16.516c15.195,0,29.501,5.938,40.488,16.924c10.651,10.55,16.517,24.784,16.517,40.081
	c0,15.294-5.865,29.528-16.717,40.28c-10.786,10.784-25.093,16.722-40.287,16.722c-15.164,0-29.325-5.865-40.281-16.924
	C370.009,276.07,364.144,261.836,364.144,246.54z"/>
</svg>
