<?xml version="1.0" encoding="utf-8"?>
<!-- Generator: Adobe Illustrator 18.1.0, SVG Export Plug-In . SVG Version: 6.00 Build 0)  -->
<svg version="1.1" id="Слой_1" xmlns="http://www.w3.org/2000/svg" xmlns:xlink="http://www.w3.org/1999/xlink" x="0px" y="0px"
	 viewBox="0 0 841.89 595.28" enable-background="new 0 0 841.89 595.28" xml:space="preserve">
<g>
	
		<linearGradient id="SVGID_1_" gradientUnits="userSpaceOnUse" x1="0.7319" y1="364.4845" x2="393.5993" y2="364.4845" gradientTransform="matrix(1.05 0 0 -1.05 123.305 625.0477)">
		<stop  offset="0" style="stop-color:#D0090F"/>
		<stop  offset="1" style="stop-color:#E58618"/>
	</linearGradient>
	<path fill="url(#SVGID_1_)" d="M536.587,210.014c-55.116,2.879-103.043,19.588-141.955,57.336
		c-39.314,38.137-57.26,84.87-52.355,142.802c-21.543-2.668-41.164-5.604-60.898-7.266c-6.816-0.573-14.903,0.242-20.676,3.499
		c-19.162,10.812-37.531,23.02-59.304,36.631c3.995-18.07,6.58-33.892,11.158-49.111c3.366-11.186,1.807-17.411-8.498-24.695
		c-66.161-46.713-94.05-116.621-73.179-188.593c19.31-66.582,66.73-106.961,131.163-128.01
		c87.944-28.727,186.779,0.575,240.256,70.399C521.614,148.227,533.458,176.535,536.587,210.014L536.587,210.014z M282.923,187.588
		c0.507-13.164-10.899-25.024-24.447-25.42c-13.872-0.407-25.281,10.193-25.685,23.862c-0.41,13.854,10.186,24.955,24.159,25.31
		C270.8,211.692,282.411,201.078,282.923,187.588L282.923,187.588z M415.27,162.16c-13.599,0.25-25.09,11.833-24.848,25.048
		c0.248,13.698,11.521,24.416,25.504,24.247c14.02-0.168,24.652-10.999,24.521-24.987C440.33,172.738,429.107,161.907,415.27,162.16
		z"/>
	
		<linearGradient id="SVGID_2_" gradientUnits="userSpaceOnUse" x1="229.248" y1="221.9475" x2="566.1981" y2="221.9475" gradientTransform="matrix(1.05 0 0 -1.05 123.305 625.0477)">
		<stop  offset="0" style="stop-color:#D0090F"/>
		<stop  offset="1" style="stop-color:#E58618"/>
	</linearGradient>
	<path fill="url(#SVGID_2_)" d="M660.413,553.622c-17.452-7.771-33.462-19.43-50.506-21.21c-16.979-1.773-34.828,8.022-52.592,9.839
		c-54.11,5.536-102.586-9.545-142.558-46.509c-76.022-70.315-65.159-178.129,22.795-235.752
		c78.171-51.212,192.812-34.14,247.925,36.919c48.096,62.006,42.443,144.317-16.271,196.408
		c-16.99,15.076-23.104,27.482-12.203,47.356C659.015,544.342,659.245,548.988,660.413,553.622L660.413,553.622z M461.752,361.277
		c11.11,0.012,20.259-8.685,20.68-19.658c0.444-11.618-8.9-21.363-20.535-21.411c-11.519-0.052-21.167,9.829-20.767,21.274
		C441.509,352.417,450.72,361.264,461.752,361.277L461.752,361.277z M589.819,320.254c-10.78-0.076-19.941,8.75-20.38,19.642
		c-0.466,11.648,8.586,21.213,20.113,21.243c11.149,0.037,19.958-8.395,20.364-19.489
		C610.349,329.973,601.291,320.333,589.819,320.254z"/>
</g>
</svg>
