<?xml version="1.0" encoding="utf-8"?>
<!-- Generator: Adobe Illustrator 18.1.0, SVG Export Plug-In . SVG Version: 6.00 Build 0)  -->
<svg version="1.1" id="Слой_1" xmlns="http://www.w3.org/2000/svg" xmlns:xlink="http://www.w3.org/1999/xlink" x="0px" y="0px"
	 viewBox="0 0 566.93 566.93" enable-background="new 0 0 566.93 566.93" xml:space="preserve">
<g>
	<path fill="#AEAEAE" d="M243.185,152.065c0-10.598,3.749-19.225,11.263-25.89c7.532-6.656,17.149-9.985,28.903-9.985
		c12.034,0,21.774,3.398,29.218,10.204c7.445,6.805,11.176,15.362,11.176,25.671c0,10.458-3.801,19.155-11.386,26.1
		c-7.602,6.954-17.272,10.423-29.008,10.423c-11.596,0-21.196-3.503-28.78-10.528C246.968,171.045,243.185,162.383,243.185,152.065z
		 M248.335,466.382V228.764h69.175v237.619H248.335z"/>
</g>
<g>
	<g>
		<path fill="#AEAEAE" d="M283.456,566.93c-156.304,0-283.461-127.165-283.461-283.469S127.152,0,283.456,0
			s283.478,127.156,283.478,283.461S439.761,566.93,283.456,566.93z M283.456,71.75c-116.734,0-211.711,94.977-211.711,211.711
			c0,116.742,94.977,211.72,211.711,211.72c116.751,0,211.728-94.977,211.728-211.72C495.185,166.727,400.207,71.75,283.456,71.75z"
			/>
	</g>
</g>
</svg>
